<?xml version="1.0" encoding="UTF-8"?>
<svg id="Layer_1" data-name="Layer 1" xmlns="http://www.w3.org/2000/svg" viewBox="0 0 462.13 458.67">
  <defs>
    <style>
      .cls-1 {
        opacity: .3;
      }

      .cls-2 {
        fill: #fff;
        stroke-width: 0px;
      }
    </style>
  </defs>
  <g class="cls-1">
    <path class="cls-2" d="M282.03,314.11c-5.36,7.28-10.26,6.75-15.89-2-1.93,2.48-4.18,4.42-7.81,4.52,2.75,3.31,6.26,6.07,4.12,10.76-1.51,3.31-4.04,5.47-7.76,5.41-4.94-.07-7.14-3.51-8.67-8.46-2.39,4.13-5.97,5.94-9.89,5.23-3.37-.61-5.14-3.89-6.72-7.35-2.24,3.83-5.82,5.83-9.62,5.09-4-.77-6.16-4.38-6.94-8.57-6.87,7.85-11.55,7.11-16.84-2.47-6.05,7.38-10.94,6.8-16.24-1.9-5.71,3.92-10.23,3.78-13.26-.4-3.39-4.67-1.94-8.65,5-13.41-2.47-1.68-3.98-4.05-5-6.87-2.42,3.87-6.06,5.97-10.04,4.8-3.3-.97-5.87-4.02-6-8.03-.18-5.32,3.78-7.18,7.94-8.95-2.58-1.61-3.95-3.95-4.86-6.78-2.48,3.68-5.8,5.88-10.03,4.66-3.06-.88-5.36-3.35-5.9-6.81-.83-5.33,2.86-7.72,6.89-9.99-3.69-2.25-5.11-5.48-4.92-9.5.08-.52.15-1.05.23-1.57,2-2.51,4.18-4.78,7.94-5.56-3.12-1.99-4.37-4.51-4.76-7.76-2.42,2.95-5.25,4.69-8.93,4.77-.8-.42-1.59-.84-2.39-1.26-7.34-5.27-6.5-10.8,2.54-15.91-3.44-2.09-5.7-5.09-4.98-9.09.78-4.32,4.09-6.5,8.37-7.27-6.97-6.32-6.77-10.13.75-16.51-5.43-7.71-3.69-12.81,5.11-14.99.66,1.02,1.62,1.08,2.67.84,3.52.27,3.94,3.88,6.1,5.78,1.36-2.61,3.8-3.76,6.22-5.03-2.92-2.09-4.68-4.72-4.63-8.33.09-.75.19-1.5.28-2.25,1.99-3.08,4.26-5.74,8.9-5.47-3.58-3.12-6.5-6.02-4.78-10.72,1.27-3.49,3.93-5.56,7.56-5.63,4.89-.09,7.19,3.32,8.72,8.13,1.83-2.88,4.17-4.37,7.09-5.23-3.27-2.54-5.84-5.42-4.58-9.84.94-3.29,3.27-5.45,6.65-5.98,5.25-.82,7.72,2.83,9.87,7.01,2.44-4,5.78-5.52,10.07-5.01,0,0,.35.17.35.17l.38-.1c2.78,1.86,5.11,4.08,5.88,8.15,1.59-3.03,4.14-4.07,6.86-5.15-2.11-1.68-4.02-3.06-4.3-5.63.58-2.45,1.17-4.9,1.75-7.35,6.33-4.9,9.96-3.84,14.69,4.41,2.11-3.39,4.97-5.67,9.1-4.94,4.45.79,6.41,4.16,7.32,8.34,6.53-7.46,12.14-6.63,16.68,2.61,2.33-3.34,5.18-5.91,9.45-4.87,4.02.99,6.34,3.76,6.61,8.02-1.34.81-1.23,2.12-1.16,3.41-.51,2.98-3.58,3.37-5.47,5.33,2.42,1.45,3.7,3.74,4.91,6.15,2.01-2.49,4.14-4.48,7.47-4.37,1.13.04,2.25.09,3.38.13,2.95,2,5.24,4.46,5.51,8.56,2.83-3.66,5.98-6.17,10.31-4.7,3.55,1.2,5.88,4.1,5.94,8.02.08,4.94-3.66,6.87-7.95,8.71,2.62,1.64,3.97,4.02,4.94,6.79,2.51-3.83,5.88-5.9,10.11-4.63,3.03.92,5.26,3.39,5.8,6.85.83,5.34-2.97,7.62-6.78,9.93,2.45,1.64,4.22,3.65,4.82,7.07,4.27-2.81,8.2-5.92,12.84-2.03,2.43,2.03,3.77,4.66,3.01,7.81-.98,4.05-3.68,6.35-7.96,6.56-.61-.97-1.52-1.02-2.51-.82-4.06-.37-4.29-4.41-6.27-6.96-1.63,2.82-4.01,4.11-6.95,4.97,2.38,1.95,3.9,4.28,4.51,7.36,2.58-2.67,5.18-4.73,8.91-4.38.47,1.08,1.36,1.37,2.45,1.26,5.56,4.12,5.37,9.96-.5,15.37,5.06,8.23,3.82,12.34-5.25,16.01,3.49,2.26,5.21,5.49,4.64,9.3-.58,3.84-3.69,5.76-7.15,7.06,7.53,6.9,6.21,13.14-3.46,16.73,5.4,5.69,5.86,10.42,1.37,14.1-4.79,3.91-8.85,2.58-13.85-4.74-1.53,2.4-3.74,3.87-6.44,4.88,3.07,2.59,5.61,5.45,4.39,9.58-1.14,3.86-3.72,6.45-8.12,6.51-1.23-.39-2.46-.78-3.69-1.17-3.33-.86-3.79-4.08-5.28-6.57-1.4,2.42-3.64,3.6-6.33,4.75,3.15,2.25,5.1,4.98,4.57,8.88-.97.56-1.25,1.43-1.12,2.48ZM254.5,315.82c-2.86-1.52-4.07-4.06-5.06-6.93-1.96,2.43-4.18,3.89-7.27,4.37,2.43,2.37,4.42,4.8,4.65,9.01,1.76-3.95,4.77-4.99,7.68-6.46ZM213.72,315.26c1.73-2.84,4.15-4.36,7.57-5.34-3-1.52-3.98-4.14-5.07-6.87-1.91,2.46-4.26,3.65-7.04,4.42,2.38,2.15,4.04,4.51,4.54,7.79ZM197.29,311.83c1.38-3.15,4.14-4.32,7.16-5.53-2.56-1.37-3.31-3.88-4.96-5.74-1.7,2.76-4.25,3.91-7.63,4.53,2.85,1.63,3.91,4.19,5.43,6.75ZM150.02,229.38c-2.82-1.87-4.3-4.3-4.7-7.95-1.84,2.98-4.5,4.19-7.32,5.49,3.35,1.38,4.54,4.33,5.89,7.27,1.38-2.19,3.29-3.52,6.12-4.81ZM313.4,235.13c-1.48,2.65-3.98,3.83-6.81,4.85,2.24,1.68,3.17,3.97,4.59,6.12,1.71-2.84,4.33-4.1,7.75-4.88-3.03-1.53-3.94-4.02-5.53-6.09ZM305.06,280.22c1.82-3.49,4.71-4.6,8.3-5.93-3.35-1.22-4.09-4.05-5.98-6.05-1.54,2.97-4.09,3.9-6.84,4.95,2.35,1.69,3.59,3.87,4.51,7.03ZM284.86,167.6c2.81,1.89,3.92,4.27,4.98,7.43,1.36-3.22,4.33-3.66,6.75-5.44-2.39-1.99-3.37-4.4-4.45-7.05-1.8,2.81-4.07,4.21-7.28,5.07ZM225.67,310.8c2.11,2.12,3.71,4.29,4.81,7.11,1.37-3.28,4.22-4.4,7.21-5.73-2.66-1.3-3.37-3.85-4.99-5.68-1.63,2.27-3.59,3.75-7.03,4.3ZM191.34,157.28c1.5-2.78,3.89-3.74,6.21-5.03-2.67-1.62-3.95-4.14-5.02-7.27-1.25,3.27-4.04,4.18-6.29,5.93,2.27,1.52,3.72,3.52,5.1,6.36ZM308.7,263.45c1.18-3.27,4.11-4.07,6.63-5.89-3.11-1.01-3.8-3.86-5.66-5.95-1.24,2.81-3.62,3.53-5.62,4.92,2.24,1.67,3.66,3.85,4.65,6.92ZM221.6,140.26c2.79,1.44,3.91,3.77,5.27,6.06,1.67-2.37,3.91-3.78,6.94-4.67-3.19-1.48-4.32-4.33-5.74-7.43-1.24,3.22-3.63,4.29-6.47,6.04ZM181.19,307.67c2.23-1.3,4.35-2.54,6.62-3.86-2.77-1.55-3.8-4.02-4.7-6.74-1.92,2.23-4.17,3.66-7.03,4.45,2.43,1.47,3.96,3.45,5.11,6.15ZM173.67,158.45c-1.81,3.13-4.7,4.31-7.85,5.66,2.82,1.29,3.8,3.9,5.48,6.14,1.2-2.6,3.59-3.36,5.42-4.91-1.74-1.9-2.56-4.17-3.05-6.9ZM305.12,182.39c-1.14,3.15-3.72,3.98-6.05,5.55,2.6,1.22,3.51,3.67,4.83,5.91,1.61-2.46,3.96-3.81,6.76-4.76-2.44-1.4-3.82-3.53-5.54-6.7ZM148.56,263.65c3.5,1.32,4.15,4.3,6.18,6.13,1.19-2.64,3.7-3.49,5.88-5.06-2.6-1.24-3.53-3.67-4.78-5.94-1.66,2.35-3.86,3.86-7.29,4.87ZM163.97,180.69c2.37,1.4,3.56,3.63,4.96,6.17,1.15-2.72,3.71-3.49,5.77-5-2.37-1.41-3.48-3.71-4.66-6.09-1.5,2.32-3.8,3.52-6.08,4.92ZM287.29,281.59c-1.48,2.24-3.73,3.26-5.87,4.67,2.84,1.77,4.01,4.15,4.68,7.59,1.49-2.77,4.14-3.57,6.18-5.4-3.01-1.57-3.95-4.1-4.99-6.86ZM268.36,295.53c-1.39,2.63-3.85,3.47-5.89,4.96,2.39,1.48,3.55,3.73,4.65,6.23,1.51-2.38,4.03-3.44,6.07-5.22-2.37-1.25-3.44-3.34-4.83-5.96ZM188.98,202c-2.81-1.55-3.65-4.13-4.74-6.69-1.89,2.22-3.98,3.61-6.99,4.29,2.51,1.83,3.81,4.15,4.58,6.94,1.84-2.27,4.13-3.62,7.15-4.54ZM283.74,207.7c1.87-2.21,4.03-3.65,6.99-4.42-2.5-1.91-3.77-4.06-4.47-6.74-2,1.95-4.06,3.66-6.99,4.22,2.25,1.89,3.66,4.14,4.48,6.94ZM178.4,228.36c-1.89,2.29-4.09,3.69-6.9,4.46,2.31,1.96,3.69,4.05,4.31,6.8,2.04-2.01,4.12-3.71,7.25-4.32-2.61-1.75-3.83-4.12-4.66-6.94ZM295.5,272.07c-2.47-1.97-3.8-4.19-4.59-6.98-1.91,2.34-4.12,3.66-6.9,4.46,2.38,1.92,3.67,4.15,4.49,7,1.82-2.39,3.92-3.7,7-4.48ZM252.81,287c2.04-2,4.12-3.7,7.25-4.32-2.62-1.74-3.82-4.12-4.67-6.93-1.89,2.29-4.09,3.68-6.89,4.45,2.3,1.97,3.7,4.05,4.31,6.8ZM216.27,172.52c2.81,1.55,3.65,4.13,4.74,6.69,1.89-2.22,3.98-3.61,6.99-4.29-2.51-1.83-3.81-4.15-4.58-6.94-1.84,2.27-4.13,3.62-7.15,4.54ZM222.23,269.83c-1.9,2.25-4.06,3.69-6.89,4.42,2.28,2,3.69,4.07,4.35,7.07,1.86-2.46,4.13-3.85,7.16-4.59-2.57-1.73-3.79-4.1-4.62-6.91ZM256.36,168.55c2.04-2,4.12-3.7,7.25-4.32-2.62-1.74-3.82-4.12-4.67-6.93-1.89,2.29-4.09,3.68-6.89,4.45,2.3,1.97,3.7,4.05,4.31,6.8ZM214.91,212.38c2.03-2.01,4.11-3.71,7.03-4.28-2.27-1.87-3.65-4.14-4.49-6.93-1.86,2.24-4.05,3.64-6.86,4.4,2.31,1.97,3.7,4.06,4.31,6.81ZM140.23,210.27c3.71,1.55,4.73,4.46,6.25,7.57,1.16-3.05,3.79-3.64,5.72-5.26-2.48-1.35-3.34-3.77-4.77-5.87-1.88,2.06-4.07,2.8-7.2,3.55ZM216.1,241.26c-2.43-1.97-3.77-4.15-4.54-6.97-2.06,2.45-4.22,3.73-6.89,4.39,2.22,1.87,3.64,4.11,4.47,7.04,1.72-2.36,3.85-3.67,6.96-4.46ZM256.41,299.06c-2.55-1.45-3.69-3.89-4.5-6.37-1.94,1.42-3.83,2.79-5.77,4.21,2.1,1.65,3.73,3.74,4.22,6.57,2.04-1.49,4.02-2.94,6.04-4.41ZM300.47,210.17c1.45-2.44,3.95-3.59,6.91-4.63-2.35-1.57-3.25-3.87-4.79-5.98-1.5,3.02-4.06,3.85-6.35,4.75,1.48,2.04,2.83,3.91,4.24,5.86ZM273.27,171.11c1.6-2.64,4.01-3.73,6.56-4.47-1.51-2.03-2.98-3.99-4.49-6.01-1.46,2.65-3.88,3.79-6.38,4.55,1.39,1.9,2.75,3.78,4.31,5.92ZM261.16,140.39c-.87,2.91-3.26,3.58-4.32,5.28,1.17,2.11,2.25,4.07,3.37,6.08,1.79-1.88,3.79-3.41,7.04-4.11-3.34-1.48-4.31-4.33-6.09-7.25ZM259.92,180.59c-2.53-1.66-3.72-3.84-4.37-6.39-2,1.46-3.95,2.87-6.05,4.4,2.72,1.32,3.63,3.89,4.54,6.26,1.94-1.41,3.82-2.78,5.87-4.27ZM205.58,267.06c-1.54,2.79-3.95,4-6.55,4.71,1.45,1.96,2.88,3.9,4.37,5.91,1.5-2.55,3.96-3.55,6.73-4.59-2.14-1.5-3.17-3.38-4.55-6.03ZM188.36,236.22c1.46,1.97,2.9,3.92,4.46,6.03,1.29-2.8,3.94-3.56,6.61-4.76-2.32-1.45-3.16-3.72-4.53-5.7-1.65,2.39-3.88,3.83-6.54,4.43ZM232.64,243.53c-2.18-1.56-3.26-3.74-4.6-5.91-1.74,2.63-3.9,3.86-6.98,4.62,2.39,1.58,3.27,3.91,4.76,5.92,1.53-2.55,3.92-3.72,6.82-4.63ZM244.93,136.72c-1.51,3.19-4.15,4.32-6.62,6.27,3.12.95,3.62,3.77,5.16,5.44,1.6-1.44,3.16-2.84,4.79-4.3-1.68-2.01-2.94-4.11-3.33-7.41ZM251.85,230.44c-2.88-1.62-3.76-4.15-4.71-6.41-2.07,1.49-3.95,2.85-5.85,4.22,2.44,1.5,3.69,3.86,4.56,6.9,1.47-2.31,3.62-3.3,6-4.71ZM193.85,270.87c-2.65-1.68-3.52-3.93-4.85-5.94-1.64,2.39-3.86,3.84-6.56,4.45,1.46,1.98,2.9,3.92,4.36,5.9,1.55-2.29,3.61-3.65,7.05-4.41ZM211.61,171.37c-2.65-1.68-3.52-3.93-4.85-5.94-1.64,2.39-3.86,3.84-6.56,4.45,1.46,1.98,2.9,3.92,4.36,5.9,1.55-2.29,3.61-3.65,7.05-4.41ZM315.64,218.67c-1.3,2.44-3.65,3.38-5.83,4.78,2.63,1.54,3.54,3.88,4.69,5.91,1.76-1.59,3.33-3.01,4.82-4.35-1.21-2.09-2.37-4.07-3.68-6.33ZM208.12,222.36c2.57,1.51,3.56,3.97,4.46,6.3,2.07-1.49,3.95-2.84,5.85-4.21-2.37-1.53-3.72-3.83-4.37-6.43-1.89,1.38-3.77,2.75-5.94,4.33ZM186.86,178.94c-2.01,1.45-3.98,2.86-5.98,4.3,2.47,1.49,3.66,3.88,4.63,7.01,1.31-2.61,3.77-3.36,5.81-4.85-2.6-1.73-3.82-3.89-4.45-6.46ZM217.22,297.45c2.01-1.45,3.97-2.87,5.97-4.33-2.48-1.48-3.64-3.88-4.56-6.77-1.55,2.19-3.74,3.25-5.89,4.61,2.65,1.76,3.86,3.93,4.49,6.49ZM282.8,184.42c2.31,1.51,3.68,3.81,4.45,6.83,1.63-2.15,3.79-3.32,6.05-4.64-2.77-1.63-3.77-4.11-4.67-6.45-1.9,1.39-3.62,2.65-5.82,4.27ZM173.38,255.98c2.01-1.45,3.98-2.86,6.07-4.37-2.68-1.34-3.68-3.87-4.73-6.9-1.29,2.57-3.75,3.32-5.79,4.81,2.6,1.73,3.82,3.89,4.45,6.46ZM262.23,265.92c-2.3-1.52-3.7-3.79-4.34-6.45-1.97,1.46-3.91,2.89-5.91,4.37,2.55,1.5,3.55,3.96,4.43,6.31,1.9-1.38,3.62-2.63,5.82-4.23ZM276.82,217.62c2.56,1.48,3.6,3.94,4.64,6.77,1.46-2.32,3.69-3.22,5.74-4.54-2.29-1.72-3.84-3.85-4.4-6.59-1.9,1.38-3.75,2.73-5.98,4.36ZM243.28,279.06c-2.16-1.57-3.25-3.73-4.57-5.91-1.78,2.63-3.93,3.87-6.51,4.5,1.46,2.01,2.87,3.97,4.32,5.97,1.48-2.47,3.87-3.63,6.75-4.56ZM218.43,195.59c1.96-1.45,3.91-2.88,5.9-4.36-2.5-1.52-3.58-3.93-4.41-6.33-2.04,1.48-3.92,2.85-5.92,4.29,2.51,1.41,3.72,3.8,4.42,6.39ZM179.31,222.83c2.01-1.45,3.97-2.87,5.97-4.33-2.48-1.48-3.64-3.88-4.56-6.77-1.55,2.19-3.74,3.25-5.89,4.61,2.65,1.76,3.86,3.93,4.49,6.49ZM293.23,248.47c-1.54,2.16-3.73,3.24-5.89,4.58,2.63,1.74,3.86,3.9,4.62,6.98,1.58-2.39,3.91-3.27,6.01-4.83-2.76-1.38-3.74-3.91-4.74-6.73ZM165.43,203.03c1.51-2.31,3.81-3.68,7.06-4.51-2.61-1.39-3.43-3.83-4.9-5.94-1.6,2.72-4.08,3.72-6.42,4.62,1.39,1.9,2.65,3.62,4.27,5.82ZM273.75,199.89c-1.46-1.97-2.9-3.92-4.39-5.93-1.45,2.58-3.95,3.53-6.27,4.47,1.44,1.99,2.81,3.87,4.2,5.78,1.57-2.28,3.8-3.72,6.47-4.32ZM193.94,203.26c2.19,1.53,3.25,3.73,4.6,5.89,1.76-2.67,3.94-3.86,7.02-4.64-2.48-1.5-3.26-3.92-4.84-5.87-1.52,2.57-3.95,3.68-6.78,4.62ZM238.57,210.37c-2.18-1.56-3.26-3.74-4.6-5.91-1.74,2.63-3.9,3.86-6.98,4.62,2.39,1.58,3.27,3.91,4.76,5.92,1.53-2.55,3.92-3.72,6.82-4.63ZM155.52,196.32c-1.95-2.06-3.69-4.1-4.34-7.24-1.37,2.48-3.43,3.83-5.38,5.2,1.46,1.92,2.61,3.44,3.8,5.01,1.88-1.35,3.62-2.55,5.92-2.98ZM168.93,215.17c-2.4-1.44-3.43-3.78-4.89-5.94-1.24,2.44-3.75,3.21-5.69,4.83,2.32,1.31,3.27,3.62,4.64,5.75,1.47-2.28,3.32-3.35,5.93-4.64ZM259.96,215.2c2.66,1.12,3.4,3.68,4.93,5.74,1.25-2.39,3.73-3.21,5.72-4.81-2.33-1.3-3.29-3.62-4.69-5.78-1.49,2.53-3.72,3.44-5.97,4.84ZM191.37,248.34c-1.39,2.25-3.68,3.33-5.88,4.72,2.42,1.27,3.25,3.75,4.84,5.74,1.3-2.33,3.62-3.29,5.89-4.76-2.74-1.34-3.49-3.7-4.85-5.7ZM236.24,187.51c-1.12,3.05-3.8,3.58-5.71,5.22,2.53,1.45,3.35,3.74,4.72,5.74,1.28-2.37,3.72-3.26,5.75-4.79-2.22-1.36-3.31-3.45-4.76-6.17ZM235.25,261.35c2.39,1.26,3.26,3.72,4.82,5.77,1.3-2.34,3.62-3.32,5.92-4.79-2.74-1.31-3.49-3.67-4.97-5.86-1.16,2.6-3.67,3.39-5.77,4.87ZM200.88,294.55c1.38-2.53,3.72-3.49,5.89-4.89-2.46-1.44-3.41-3.64-4.68-5.75-1.52,2.16-3.69,3.37-6.07,4.72,2.43,1.17,3.42,3.34,4.87,5.93ZM276.66,245.97c-1.39,2.25-3.68,3.33-5.88,4.72,2.42,1.27,3.25,3.75,4.93,5.86,1.05-2.64,3.63-3.29,5.73-4.91-2.67-1.31-3.43-3.66-4.78-5.67ZM202.1,192.54c1.26-2.39,3.72-3.26,5.93-4.93-2.74-.97-3.3-3.66-4.94-5.57-1.4,2.39-3.63,3.31-5.89,4.72,2.62,1.17,3.42,3.68,4.9,5.78ZM197.26,215.07c-1.42,2.46-3.7,3.45-5.9,4.81,2.54,1.53,3.45,3.76,4.75,5.81,1.39-2.28,3.7-3.32,5.96-4.8-2.43-1.16-3.35-3.39-4.81-5.81ZM293.18,220.94c2.4,1.44,3.43,3.78,5.03,6.15.92-2.86,3.72-3.29,5.62-5.15-2.57-1.04-3.24-3.6-4.74-5.6-1.45,2.24-3.3,3.31-5.91,4.6ZM270.77,187.9c1.52-2.56,3.73-3.49,5.82-4.76-2.25-1.43-3.35-3.7-4.73-5.91-1.27,2.42-3.75,3.25-5.82,4.91,2.48,1.17,3.32,3.46,4.74,5.77ZM234.11,300.47c1.18-2.59,3.66-3.43,5.79-4.88-2.38-1.27-3.27-3.72-4.92-5.92-1.01,2.69-3.64,3.32-5.7,4.97,2.61,1.27,3.39,3.61,4.83,5.83ZM224.41,225.75c2.57,1.44,3.55,3.75,4.92,5.95,1.47-2.53,3.7-3.44,5.97-4.86-2.64-1.15-3.4-3.69-4.9-5.72-1.34,2.14-3.37,3.31-5.99,4.63ZM209.39,148.27c-1.77,2.68-4.15,3.69-6.27,5.24,2.43,1.28,3.45,3.64,4.66,5.5,1.64-1.31,3.26-2.61,4.83-3.87-1.64-1.99-2.81-3.54-3.22-6.87ZM244.09,211.64c1.77,1.73,3.37,3.85,4.1,6.87,1.58-2.24,3.78-3.3,6.06-4.76-2.73-1.14-3.12-3.83-4.77-4.96-1.79.94-3.32,1.75-5.39,2.85ZM172.16,284.29c-1.21-1.75-2.24-3.23-3.35-4.84-1.85,1.87-3.82,2.63-6.68,3.01,2.82,1.64,3.79,4.23,5.04,5.78,1.66-1.31,3.3-2.61,4.99-3.95ZM246.89,195.35c2.98.7,3.06,3.7,5.09,4.88,1.56-1.44,3.35-2.2,5.38-2.78-2.03-1.96-3.63-4.07-4.23-6.64-1.94,1.41-3.82,2.78-6.24,4.54ZM157.09,252.97c1.21-2.31,3.58-3.33,5.43-4.52-1.3-1.62-2.59-3.22-3.88-4.83-2.04,1.86-3.87,2.85-6.01,3.25,1.5,2.05,2.96,4.07,4.45,6.11ZM176.8,268.39c-2.08-1.86-3.64-3.94-4.18-6.51-2.16,1.55-4.05,2.91-5.97,4.28,2.1,1.14,3,3.43,4.62,5.35,1.48-1.65,3.49-2.26,5.54-3.12ZM238.1,244.49c1.47,1.99,2.91,3.94,4.42,5.98,1.06-2.36,3.63-2.91,5.1-4.69-1.37-1.58-2.25-3.31-2.76-5.4-2.09,1.83-4.05,3.69-6.76,4.11ZM187.92,173.16c1.76-1.95,3.82-3.54,7.08-4.21-2.7-1.69-3.54-3.97-4.86-6.02-1.26,2.18-3.51,3.13-5.19,4.56,1.01,1.92,1.97,3.76,2.97,5.68ZM280.11,229.91c-1.73,1.77-3.85,3.37-6.87,4.1,2.24,1.58,3.3,3.78,4.76,6.06,1.14-2.73,3.83-3.12,4.96-4.77-.94-1.79-1.75-3.32-2.85-5.39ZM291.57,237.38c1.09,2.04,2.02,3.79,3.07,5.74,1.72-2.36,3.93-3.52,6.35-4.15-1.45-1.97-2.89-3.91-4.45-6.02-.99,2.31-3.15,3.04-4.97,4.44ZM180.85,285.99c1.84,1.7,2.53,3.71,3.45,5.94,1.49-2.22,3.69-3.28,5.92-4.66-2.6-1.44-3.39-3.78-4.71-5.58-1.44,1.33-2.84,2.62-4.66,4.3ZM269.13,266.82c1.14,1.71,2.3,3.45,3.19,4.78,2.55-1.37,4.33-2.32,6.37-3.41-2.27-1.38-3.08-3.65-4.43-5.65-1.34,2.33-3.73,3.31-5.14,4.29ZM229.15,259.95c-2.36-1.26-3.26-3.64-4.49-5.41-1.71,1.42-3.17,2.64-4.64,3.86,1.54,2.08,2.71,3.83,3.13,5.88,1.9-1.37,3.78-2.72,6-4.33ZM207.86,251.4c-1.68,1.23-3.62,2.65-5.66,4.14,2.31,1.23,3.2,3.62,4.48,5.44,1.67-1.44,3.1-2.68,4.44-3.83-1.14-2-2.07-3.64-3.27-5.75ZM269.71,289.6c1.26-2.36,3.64-3.25,5.41-4.49-1.42-1.71-2.64-3.17-3.86-4.64-2.08,1.54-3.83,2.71-5.88,3.13,1.37,1.9,2.72,3.78,4.33,6ZM267.82,233.06c-1.45-1.97-2.87-3.91-4.37-5.94-1.25,2.31-3.63,3.2-5.38,4.45,1.42,1.72,2.64,3.19,3.85,4.66,2.08-1.59,3.84-2.72,5.9-3.16ZM161.66,225.95c-1.26,2.19-3.64,3.18-5.06,4.15,1.14,1.7,2.3,3.45,3.19,4.77,2.56-1.37,4.33-2.32,5.97-3.2-1.39-1.94-2.74-3.82-4.1-5.73ZM238.92,172.62c-1.61,1.87-3.57,2.59-5.86,3.37,2.1,1.59,3.23,3.72,4.69,6.16,1.11-2.93,3.77-3.47,5.44-4.91-1.45-1.57-2.62-2.83-4.27-4.62ZM236.78,159.23c1.46,1.83,2.65,3.33,3.85,4.84,2.01-1.81,3.88-2.72,6.43-3.49-2.57-1.36-3.36-3.77-4.84-5.86-1.42,2.48-3.66,3.36-5.44,4.51ZM225.89,152.56c-1.64,1.44-3.07,2.71-4.44,3.91,1.1,2.09,2.07,3.93,3.05,5.79,1.83-1.31,3.78-2.71,5.79-4.14-2.11-1.28-3.22-3.35-4.39-5.55ZM265.04,249c-2.72-.44-2.8-3.15-4.84-3.78-1.45.97-2.88,1.93-4.2,2.81,1.01,1.91,1.97,3.74,2.87,5.45,1.82-1.32,3.69-2.68,6.16-4.48Z"/>
    <path class="cls-2" d="M287.5,150.56c-1.13-.04-2.25-.09-3.38-.13-3.23-1.47-3.73-5.6-6.91-7.12-.08-1.29-.19-2.6,1.16-3.41,2.25-2.58,4.23-5.52,8.82-5.85-3.73-3.57-5.75-7.16-2.66-11.43,2.08-2.88,5.07-3.73,8.34-2.45,2.98,1.17,4.74,3.53,4.56,6.86-.27,4.79-3.39,6.72-7.75,7.25,7.5,6.58,6.77,12-2.17,16.29Z"/>
    <path class="cls-2" d="M142.46,296.04c3.85,3.2,6.25,6.66,3.28,11.24-1.79,2.76-4.55,3.84-7.7,2.94-3.34-.95-5.38-3.32-5.29-6.93.13-4.84,3.36-6.74,7.95-7.46-4.65-2.11-7.14-5.27-5.67-10.31,1.09-3.71,3.97-5.35,7.66-5.14,3.72.21,6.27,2.28,6.93,6.08.91,5.23-2.1,7.92-7.16,9.57Z"/>
    <path class="cls-2" d="M290.19,304.56c1.23.39,2.46.78,3.69,1.17,2.52,2.21,5.31,4.22,5.77,7.92.06,1.22.12,2.45.19,3.67-2.11-.04-2.32,2.2-3.72,3.1-4.16,2.69-9.12,1.57-11.68-2.81-.71-1.22-.11-3.37-2.4-3.5-.13-1.05.15-1.92,1.12-2.48,2.35-2.35,4.69-4.71,7.04-7.07Z"/>
    <path class="cls-2" d="M214.53,126.31c-.58,2.45-1.17,4.9-1.75,7.35-3.46-1.18-5.17,3.24-8.44,2.63l-.38.1s-.35-.17-.35-.17c-2.86-1.4-5.52-2.96-6.22-6.47-.79-4.02.7-7.02,4.26-8.75,3.62-1.76,6.78-.73,9.57,2.15,1.05,1.08.43,4.02,3.3,3.16Z"/>
    <path class="cls-2" d="M146.13,178.79c-1.05.24-2.01.18-2.67-.84.02-.2.12-.53.04-.57-3.78-2.19-6.48-4.93-5.28-9.8.92-3.75,3.57-5.72,7.16-5.93,4.96-.29,7.21,3.19,8.71,7.31-.09.75-.19,1.5-.28,2.25-.96,4.15-5.34,4.83-7.68,7.58Z"/>
    <path class="cls-2" d="M131.65,241.72c.8.42,1.59.84,2.39,1.26,2.76,2.28,5.6,4.51,5.76,8.55-.08.52-.15,1.05-.23,1.57-1.64,4.05-4.62,6.61-9,6.1-3.78-.44-6.44-3.06-6.92-7.01-.44-3.65,1.23-6.39,4.54-8.18,1.2-.65,3.3-.05,3.47-2.29Z"/>
    <path class="cls-2" d="M318.22,299.57c.13,4.29-3.47,8-7.77,8.02-4.2.02-8.23-3.81-7.9-7.92.36-4.5,3.11-7.2,7.55-7.75,4.01-.49,8,3.45,8.12,7.65Z"/>
    <path class="cls-2" d="M279.14,327.13c-.06,4.3-3.83,7.88-8.11,7.71-4.14-.17-8.28-4.32-7.66-8.24.68-4.3,3.36-7.14,7.92-7.43,4.11-.26,7.9,3.75,7.84,7.97Z"/>
    <path class="cls-2" d="M243.32,337.95c-.52,4.6-3.02,7.25-7.65,7.18-4.64-.08-7.17-2.8-7.33-7.41-.16-4.43,3.42-7.82,7.88-7.48,4.66.36,6.87,3.18,7.1,7.71Z"/>
    <path class="cls-2" d="M317.31,157.15c4.4-.12,7.97,3.27,7.79,7.67-.19,4.59-2.77,7.33-7.34,7.46-4.56.13-7.32-2.44-7.78-7.02-.44-4.37,2.96-7.99,7.33-8.11Z"/>
    <path class="cls-2" d="M163.99,306.7c-.28,4.56-2.53,7.35-7.21,7.69-4.46.33-8.04-3.12-7.86-7.57.19-4.65,2.8-7.33,7.43-7.39,4.66-.06,7.12,2.67,7.64,7.27Z"/>
    <path class="cls-2" d="M330.57,192.45c-4.57-.37-7.38-2.73-7.47-7.39-.08-4.62,2.49-7.33,7.14-7.65,4.46-.31,7.99,3.15,7.81,7.6-.2,4.68-2.9,7.02-7.48,7.44Z"/>
    <path class="cls-2" d="M332.75,262.72c4.28-.1,7.55,3.02,7.64,7.28.09,4.29-3.01,7.55-7.28,7.64-4.27.09-7.54-3.03-7.64-7.28-.1-4.27,3.03-7.54,7.28-7.64Z"/>
    <path class="cls-2" d="M129.18,275.25c-4.27,0-7.44-3.17-7.44-7.44,0-4.26,3.17-7.44,7.44-7.44,4.26,0,7.44,3.18,7.44,7.44,0,4.26-3.18,7.44-7.44,7.44Z"/>
    <path class="cls-2" d="M341.08,227.85c-4.24-.07-7.36-3.3-7.28-7.56.07-4.25,3.3-7.35,7.56-7.28,4.25.07,7.35,3.29,7.28,7.56-.07,4.25-3.3,7.35-7.56,7.28Z"/>
    <path class="cls-2" d="M219.78,327.7c4.05.34,6.68,2.8,7.01,7.37.31,4.37-3.23,8.02-7.61,7.85-4.6-.18-7.23-2.75-7.55-7.33-.31-4.37,3.2-7.86,8.15-7.89Z"/>
    <path class="cls-2" d="M210.29,331.55c-.29,4.56-2.56,7.37-7.17,7.82-4.37.42-8.01-3.01-8.12-7.4-.12-4.37,3.33-7.97,7.73-7.81,4.66.17,7,2.92,7.56,7.39Z"/>
    <path class="cls-2" d="M342.96,253.32c.15,4.37-3.32,8.07-7.69,7.89-4.6-.19-7.25-2.78-7.6-7.37-.33-4.34,3.28-8.06,7.65-7.88,4.59.2,7.13,2.78,7.64,7.35Z"/>
    <path class="cls-2" d="M346.42,236.93c.04,4.22-3.15,7.53-7.35,7.65-4.45.12-7.9-3.33-7.79-7.8.1-4.19,3.43-7.39,7.65-7.34,4.22.04,7.46,3.28,7.5,7.5Z"/>
    <path class="cls-2" d="M329.62,279.5c4.24.13,7.39,3.54,6.97,7.8-.44,4.41-3.05,6.71-7.47,6.69-4.24-.02-7.29-3.5-7-7.78.27-3.99,3.45-6.84,7.5-6.71Z"/>
    <path class="cls-2" d="M188.89,118.34c4.2.24,7.15,3.67,6.82,7.94-.32,4.21-3.79,7.16-8.07,6.64-4.39-.54-6.58-3.22-6.53-7.59.05-4.23,3.5-7.23,7.77-6.99Z"/>
    <path class="cls-2" d="M175.68,138.77c-.04,4.25-3.23,7.37-7.49,7.33-4.25-.04-7.37-3.23-7.32-7.49.04-4.25,3.22-7.37,7.48-7.32,4.26.04,7.37,3.22,7.33,7.48Z"/>
    <path class="cls-2" d="M178.64,329.3c.05-4.26,3.23-7.35,7.51-7.3,4.25.05,7.35,3.24,7.3,7.51-.05,4.26-3.24,7.35-7.5,7.3-4.25-.05-7.35-3.24-7.3-7.51Z"/>
    <path class="cls-2" d="M310.74,145.71c.05,4.26-3.08,7.47-7.34,7.52-4.26.05-7.47-3.09-7.52-7.34-.05-4.28,3.06-7.47,7.34-7.52,4.26-.05,7.47,3.08,7.52,7.34Z"/>
    <path class="cls-2" d="M156.64,152.73c.09,4.29-3.01,7.48-7.29,7.49-4.27.02-7.49-3.17-7.32-7.44.18-4.39,2.59-6.88,6.97-7.17,4.27-.28,7.55,2.87,7.64,7.12Z"/>
    <path class="cls-2" d="M118.72,239.54c-4.25.1-7.44-2.99-7.47-7.22-.03-4.22,3.14-7.45,7.36-7.3,4.37.16,6.84,2.56,7.15,6.91.3,4.22-2.84,7.51-7.05,7.61Z"/>
    <path class="cls-2" d="M256.63,128.29c-4.16-.24-7.12-3.62-6.88-7.85.24-4.17,3.61-7.12,7.85-6.88,4.17.24,7.12,3.61,6.88,7.85-.24,4.16-3.62,7.12-7.85,6.88Z"/>
    <path class="cls-2" d="M131.8,198.98c.07,4.3-3.08,7.49-7.37,7.48-4.29-.01-7.51-3.23-7.31-7.52.21-4.41,2.65-6.89,7.06-7.16,4.29-.26,7.56,2.93,7.63,7.2Z"/>
    <path class="cls-2" d="M121.02,208.35c4.27.07,7.35,3.33,7.21,7.62-.14,4.24-3.49,7.38-7.76,7.03-4.4-.35-6.77-2.89-6.89-7.3-.12-4.28,3.16-7.42,7.45-7.36Z"/>
    <path class="cls-2" d="M247.85,117.14c.12,4.28-2.97,7.51-7.23,7.55-4.27.04-7.52-3.11-7.38-7.38.14-4.4,2.53-6.9,6.92-7.23,4.27-.32,7.58,2.82,7.7,7.06Z"/>
    <path class="cls-2" d="M362.4,238.9c.08,4.11-3.39,7.72-7.13,7.4-4.04-.34-6.45-2.76-6.76-6.81-.29-3.73,3.36-7.35,7.09-7.05,4.06.33,6.24,2.83,6.8,6.46Z"/>
    <path class="cls-2" d="M115.18,256.05c-4.34-.42-7.16-2.58-7.24-7.02-.09-4.4,2.48-7.1,6.87-7.21,4.4-.11,7.08,2.47,7.21,6.86.14,4.44-2.6,6.72-6.84,7.37Z"/>
    <path class="cls-2" d="M352.36,262.97c-4.23.05-7.8-3.45-7.46-7.23.37-4.07,2.8-6.49,6.9-6.75,3.8-.24,7.37,3.41,7.04,7.19-.36,4.1-2.88,6.27-6.49,6.79Z"/>
    <path class="cls-2" d="M119.62,265.62c-.66,3.98-2.86,6.47-6.93,6.75-3.74.25-7.18-3.39-7.06-7.13.12-3.71,3.84-7.22,7.46-6.72,4.01.55,6.13,3.1,6.53,7.1Z"/>
    <path class="cls-2" d="M351.94,204.69c-.43,3.53-2.64,6.14-7.1,6.31-4.21.15-7.58-3.33-7.21-7.53.38-4.39,2.96-6.76,7.37-6.78,3.97-.02,6.99,3.24,6.94,8Z"/>
    <path class="cls-2" d="M356.44,272.73c-.42,3.7-2.58,6.24-6.63,6.69-3.63.4-7.48-3.35-7.16-7.01.35-4.06,2.79-6.47,6.87-6.73,3.47-.22,6.83,3.22,6.93,7.06Z"/>
    <path class="cls-2" d="M346.95,180.16c4.24.49,7.11,2.69,7.12,7.05.01,4.32-2.71,7-7.03,6.99-4.05,0-6.66-2.59-6.85-6.6-.2-4.37,2.54-6.7,6.75-7.44Z"/>
    <path class="cls-2" d="M125.4,277.23c4.29.42,7.12,2.58,7.23,6.96.11,4.35-2.47,7.07-6.8,7.2-4.35.13-7.05-2.46-7.21-6.79-.16-4.39,2.58-6.67,6.77-7.36Z"/>
    <path class="cls-2" d="M134.01,181.48c.15,5.02-3.02,8.38-7.24,8.23-4.39-.15-6.87-2.57-7.14-6.95-.26-4.22,3.02-7.56,7.24-7.44,4.44.13,6.66,2.69,7.15,6.16Z"/>
    <path class="cls-2" d="M334.31,175.48c-4.3-.44-7.13-2.6-7.22-7-.09-4.37,2.49-7.07,6.84-7.19,4.37-.11,7.06,2.48,7.19,6.84.14,4.42-2.6,6.69-6.82,7.35Z"/>
    <path class="cls-2" d="M334.12,303.57c-.75,4.22-3.08,6.99-7.48,6.72-4.32-.27-6.88-3.09-6.58-7.46.28-4.02,2.92-6.53,7.02-6.45,4.4.09,6.58,2.9,7.04,7.19Z"/>
    <path class="cls-2" d="M129.42,158.8c4.24.74,7.01,3.08,6.74,7.51-.27,4.35-3.09,6.91-7.48,6.61-4.05-.28-6.55-2.92-6.48-7.04.08-4.43,2.91-6.61,7.22-7.07Z"/>
    <path class="cls-2" d="M299.83,317.32c-.06-1.22-.12-2.45-.19-3.67,1.63-1.62,2.8-3.83,5.34-4.3,4.26-.78,7.5.78,8.76,4.9,1.25,4.11-.5,7.38-4.5,8.98-4.17,1.67-7.44-.52-9.42-5.92Z"/>
    <path class="cls-2" d="M159.96,323.23c-.44,4.22-2.62,7.1-6.95,7.17-4.31.07-7.01-2.63-7.05-6.94-.05-4.04,2.53-6.67,6.51-6.91,4.35-.26,6.7,2.47,7.5,6.67Z"/>
    <path class="cls-2" d="M327.06,148.24c-.61,4.23-2.84,7-7.23,6.93-4.34-.07-6.97-2.73-6.93-7.07.05-4.34,2.72-6.96,7.07-6.93,4.39.02,6.58,2.82,7.09,7.08Z"/>
    <path class="cls-2" d="M169.4,333.13c-4.26-.45-6.87-2.62-7.13-7.03-.24-4.2,3.02-7.48,7.22-7.46,4.2.02,7.43,3.33,7.14,7.54-.31,4.41-2.94,6.56-7.24,6.95Z"/>
    <path class="cls-2" d="M288.03,323.33c4.26.53,6.87,2.74,7.03,7.2.15,4.2-3.34,7.57-7.53,7.19-4.38-.39-6.86-2.97-6.73-7.38.13-4.45,2.9-6.6,7.23-7.02Z"/>
    <path class="cls-2" d="M151.7,143.45c-4.25-.6-7.07-2.87-6.97-7.25.11-4.33,2.88-6.96,7.23-6.83,4.04.13,6.62,2.74,6.69,6.8.08,4.39-2.7,6.66-6.95,7.29Z"/>
    <path class="cls-2" d="M306.69,136.21c-3.97-.66-6.45-2.85-6.74-6.9-.26-3.7,3.4-7.16,7.11-7.04,3.7.12,7.2,3.84,6.7,7.44-.56,3.99-3.09,6.11-7.07,6.51Z"/>
    <path class="cls-2" d="M252.4,348.48c-4.25,0-7.5-3.26-7.23-7.51.28-4.4,2.78-6.8,7.19-6.94,4.25-.13,7.4,3.22,7.25,7.48-.14,4-3.2,6.95-7.21,6.96Z"/>
    <path class="cls-2" d="M268.75,336.49c4.29.47,7.16,2.66,7.17,7.08.01,4.37-2.68,7.03-7.06,7.02-4.09,0-6.68-2.57-6.87-6.63-.21-4.42,2.53-6.74,6.76-7.47Z"/>
    <path class="cls-2" d="M198.82,341.36c3.75-.16,7.43,3.27,7.21,7.03-.25,4.08-2.66,6.51-6.7,6.91-3.73.37-7.27-3.22-7.25-6.99.02-3.51,3.22-6.81,6.74-6.96Z"/>
    <path class="cls-2" d="M272.63,130.51c-3.47-.47-6.04-2.71-6.15-7.18-.11-4.26,3.21-7.52,7.48-7.26,4.41.27,6.82,2.76,6.97,7.18.14,4.26-3.2,7.42-8.29,7.26Z"/>
    <path class="cls-2" d="M171.84,129.22c-4.23-.61-7.06-2.87-6.95-7.24.11-4.32,2.88-6.95,7.22-6.82,4.02.13,6.61,2.74,6.68,6.78.07,4.37-2.7,6.65-6.94,7.27Z"/>
    <path class="cls-2" d="M215.55,358.95c-4-.6-6.51-2.78-6.85-6.86-.31-3.75,3.28-7.25,7.06-7.18,3.73.06,7.29,3.73,6.85,7.39-.49,4.04-3.02,6.2-7.06,6.65Z"/>
    <path class="cls-2" d="M239.16,354.76c-.65,3.73-2.88,6.22-7,6.39-3.73.16-7.33-3.76-6.78-7.4.61-4.01,3.13-6.35,7.25-6.36,3.49,0,6.68,3.66,6.54,7.37Z"/>
    <path class="cls-2" d="M223.03,122.22c-3.48-.39-6.08-2.58-6.29-7.02-.2-4.24,3.07-7.47,7.31-7.42,4.23.05,7.34,3.38,7.13,7.62-.19,3.96-3.32,6.88-8.14,6.82Z"/>
    <path class="cls-2" d="M207.15,104.3c4.32.47,7.18,2.66,7.19,7.1.01,4.4-2.68,7.04-7.08,7.04-4.11,0-6.7-2.56-6.89-6.64-.21-4.44,2.52-6.77,6.78-7.49Z"/>
    <path class="cls-2" d="M101.82,222.1c3.81.3,6.41,2.33,6.63,6.17.24,4.13-2.21,6.82-6.35,6.97-3.86.14-6.44-2.24-6.67-6.07-.24-4.14,2.23-6.5,6.39-7.07Z"/>
    <path class="cls-2" d="M285.55,352.7c-4.28-.65-6.81-2.99-6.57-7.08.24-4.05,2.98-6.49,7.08-6.2,3.78.27,6.15,2.83,6.08,6.64-.08,4.13-2.79,6.2-6.58,6.63Z"/>
    <path class="cls-2" d="M190.59,346.09c-.63,4.02-2.85,6.68-6.91,6.67-4.04,0-6.48-2.59-6.83-6.63-.32-3.65,3.48-7.37,7.11-6.97,4.03.44,6.18,2.96,6.63,6.93Z"/>
    <path class="cls-2" d="M173.75,342.49c-.62,4.27-2.99,6.74-7.16,6.46-3.85-.26-6.21-2.86-6.04-6.73.19-4.15,2.87-6.58,7.04-6.32,3.88.25,5.83,2.9,6.16,6.59Z"/>
    <path class="cls-2" d="M248.72,349.95c3.97.39,6.65,2.54,6.67,6.65.02,4.09-2.58,6.64-6.67,6.63-3.81,0-6.32-2.47-6.48-6.25-.17-4.09,2.33-6.42,6.48-7.03Z"/>
    <path class="cls-2" d="M336.33,145.07c3.95.33,6.63,2.44,6.69,6.54.06,4.09-2.49,6.64-6.58,6.67-3.81.03-6.32-2.38-6.52-6.15-.21-4.08,2.23-6.44,6.41-7.06Z"/>
    <path class="cls-2" d="M110.13,173.54c3.74.27,6.35,2.25,6.6,6.11.27,4.15-2.15,6.87-6.29,7-4.15.13-6.73-2.43-6.72-6.59,0-3.87,2.45-6.03,6.41-6.52Z"/>
    <path class="cls-2" d="M139.55,149.44c-.62,4.05-2.88,6.69-6.95,6.59-4.04-.1-6.63-2.76-6.54-6.82.09-4.04,2.76-6.62,6.82-6.54,4.07.08,6.22,2.8,6.68,6.77Z"/>
    <path class="cls-2" d="M123.13,307.65c-4.17-.62-6.68-2.99-6.42-7.06.25-4.05,2.98-6.46,7.09-6.16,3.79.28,6.14,2.84,6.04,6.65-.1,4.11-2.75,6.23-6.71,6.58Z"/>
    <path class="cls-2" d="M311.32,332.76c-.48,4.09-2.63,6.8-6.7,6.87-4.06.07-6.72-2.51-6.81-6.55-.09-4.06,2.51-6.71,6.55-6.81,4.09-.1,6.28,2.59,6.95,6.49Z"/>
    <path class="cls-2" d="M107.7,189.97c3.98.39,6.73,2.53,6.8,6.65.06,4.11-2.56,6.72-6.67,6.76-3.83.04-6.4-2.46-6.61-6.24-.23-4.11,2.33-6.47,6.47-7.17Z"/>
    <path class="cls-2" d="M323.29,326.57c-4.16-.62-6.65-2.99-6.37-7.15.26-3.84,2.87-6.22,6.73-6.04,4.14.19,6.59,2.88,6.32,7.04-.25,3.85-2.88,5.85-6.68,6.15Z"/>
    <path class="cls-2" d="M360.25,214.03c-3.76-.29-6.38-2.3-6.61-6.16-.26-4.15,2.19-6.89,6.34-7.01,4.16-.12,6.74,2.47,6.73,6.63-.02,3.87-2.49,6.04-6.45,6.53Z"/>
    <path class="cls-2" d="M197.69,108.92c-.4,3.97-2.54,6.5-6.56,6.98-3.61.44-7.45-3.25-7.18-6.91.3-4.04,2.73-6.64,6.76-6.7,4.06-.05,6.3,2.59,6.97,6.62Z"/>
    <path class="cls-2" d="M282.75,106.73c-.51,4.09-2.78,6.67-6.87,6.54-4.08-.13-6.54-2.81-6.38-6.9.16-3.78,2.66-6.22,6.47-6.24,4.1-.02,6.32,2.56,6.78,6.59Z"/>
    <path class="cls-2" d="M266.26,104.21c-.42,4-2.58,6.74-6.71,6.78-4.11.03-6.71-2.61-6.72-6.72,0-3.83,2.5-6.39,6.29-6.57,4.12-.2,6.46,2.38,7.14,6.51Z"/>
    <path class="cls-2" d="M242.76,107.48c-4.16-.64-6.69-3-6.43-7.08.25-4.05,2.99-6.48,7.1-6.17,3.78.28,6.15,2.85,6.05,6.66-.1,4.1-2.76,6.23-6.72,6.59Z"/>
    <path class="cls-2" d="M111.03,212.1c-.48,4.02-2.68,6.68-6.79,6.63-4.09-.05-6.62-2.72-6.53-6.81.08-3.8,2.58-6.3,6.38-6.39,4.11-.1,6.38,2.47,6.94,6.57Z"/>
    <path class="cls-2" d="M226.19,91.79c3.72.26,6.36,2.2,6.64,6.08.3,4.17-2.11,6.89-6.25,7.06-4.15.17-6.76-2.39-6.78-6.55-.02-3.87,2.42-6.06,6.4-6.59Z"/>
    <path class="cls-2" d="M352.6,289.18c-.49,4.07-2.77,6.63-6.93,6.49-3.84-.13-6.3-2.66-6.26-6.53.05-4.16,2.68-6.68,6.83-6.55,3.85.12,5.96,2.67,6.36,6.59Z"/>
    <path class="cls-2" d="M357.79,229.69c-3.75-.33-6.29-2.46-6.83-6.47-.49-3.62,3.15-7.49,6.84-7.26,4.06.25,6.48,2.66,6.83,6.7.3,3.43-3.07,6.85-6.84,7.03Z"/>
    <path class="cls-2" d="M129.84,319.94c.31-3.89,2.36-6.33,6.29-6.39,4.22-.06,6.66,2.44,6.54,6.64-.11,3.92-2.58,6.18-6.49,6.11-3.93-.07-6-2.46-6.33-6.37Z"/>
    <path class="cls-2" d="M155.08,126.09c-4-.42-6.23-2.6-6.1-6.57.13-3.99,2.54-6.17,6.49-6.05,3.98.12,6.16,2.53,6.05,6.49-.11,4-2.56,5.94-6.44,6.13Z"/>
    <path class="cls-2" d="M265.38,353.93c4.23.44,6.39,2.65,6.19,6.64-.21,4.04-2.71,6.03-6.67,5.79-3.74-.23-5.69-2.52-5.67-6.23.03-4.12,2.49-5.94,6.16-6.2Z"/>
    <path class="cls-2" d="M141.32,132.49c-.17,3.95-2.06,6.33-6.1,6.41-3.67.07-5.96-1.86-6.21-5.59-.26-3.94,1.68-6.43,5.71-6.66,3.97-.23,6.16,1.91,6.6,5.84Z"/>
    <path class="cls-2" d="M329.76,131.56c-.27,3.93-2.3,6.26-6.29,6.26-3.97,0-6.25-2.25-6.26-6.22-.01-3.97,2.24-6.24,6.21-6.26,3.99-.02,6.04,2.28,6.34,6.21Z"/>
    <path class="cls-2" d="M209.26,101.09c-3.92-.54-5.95-2.81-5.66-6.79.27-3.74,2.58-5.68,6.26-5.59,4.03.1,6.16,2.44,6.02,6.42-.14,4.06-2.64,5.87-6.62,5.95Z"/>
    <path class="cls-2" d="M109.15,275.67c4.12.46,6.31,2.66,6.16,6.62-.15,3.98-2.58,6.14-6.52,5.99-3.98-.15-6.13-2.58-5.99-6.52.13-4.01,2.65-5.87,6.36-6.09Z"/>
    <path class="cls-2" d="M349.82,305.79c-.34,3.96-2.44,6.2-6.45,6.07-4.04-.13-6.1-2.55-5.93-6.51.15-3.71,2.37-5.77,6.07-5.79,4.04-.02,6.05,2.27,6.31,6.23Z"/>
    <path class="cls-2" d="M292.67,103.92c3.95.31,6.27,2.39,6.25,6.38-.02,3.98-2.32,6.26-6.3,6.24-3.98-.02-6.25-2.32-6.24-6.3,0-3.99,2.36-6.04,6.29-6.32Z"/>
    <path class="cls-2" d="M174.36,111.74c-3.95-.22-6.28-2.18-6.3-6.21-.02-3.69,1.99-5.93,5.7-6.13,3.95-.21,6.39,1.8,6.57,5.83.17,3.99-2.03,6.12-5.97,6.51Z"/>
    <path class="cls-2" d="M104.71,245.3c-.43,4.15-2.59,6.35-6.54,6.23-3.98-.13-6.13-2.5-6.01-6.44.12-3.98,2.5-6.11,6.44-6.01,4.02.1,5.86,2.58,6.11,6.23Z"/>
    <path class="cls-2" d="M120.09,163.54c-.42,4.17-2.57,6.35-6.51,6.23-3.97-.13-6.1-2.48-5.98-6.41.12-3.97,2.48-6.08,6.41-5.99,4.02.09,5.84,2.57,6.08,6.17Z"/>
    <path class="cls-2" d="M349.21,177.14c-4.25-.7-6.33-3.08-6.06-6.96.27-3.93,2.83-6.12,6.7-5.88,4.2.26,6.39,2.93,5.97,7.14-.4,4.01-3.15,5.59-6.61,5.69Z"/>
    <path class="cls-2" d="M139.93,336.28c-.39,3.65-2.22,6.07-5.96,6.09-3.7.01-5.92-2.25-5.92-5.96,0-3.42,2.14-5.58,5.52-5.77,3.75-.21,5.7,2.1,6.35,5.64Z"/>
    <path class="cls-2" d="M321.09,329.16c3.71.32,5.98,2.18,6.06,5.94.08,4.01-2.1,6.3-6.13,6.3-3.73,0-5.9-2.11-6.01-5.84-.12-4.05,2.18-6.08,6.09-6.4Z"/>
    <path class="cls-2" d="M122.2,147.24c-.5,3.51-2.38,5.73-6.09,5.68-3.67-.05-5.86-2.17-5.87-5.84-.02-3.97,2.31-6.17,6.26-6.02,3.69.15,5.45,2.52,5.7,6.18Z"/>
    <path class="cls-2" d="M365.99,180.24c-3.59-.59-5.91-2.51-5.76-6.26.13-3.4,2.27-5.55,5.68-5.62,3.7-.07,6,2.12,6.05,5.82.05,3.75-2.35,5.6-5.97,6.06Z"/>
    <path class="cls-2" d="M372.12,276.23c-.51,3.58-2.4,5.86-6.14,5.76-3.7-.1-5.85-2.32-5.78-6.02.07-3.7,2.31-5.83,6.01-5.78,3.74.05,5.55,2.4,5.91,6.03Z"/>
    <path class="cls-2" d="M308.27,349.42c-.29,3.89-2.26,6.23-6.29,6.16-3.7-.06-5.85-2.2-5.89-5.9-.04-4,2.19-6.22,6.19-6.18,3.73.03,5.61,2.27,5.99,5.93Z"/>
    <path class="cls-2" d="M370.51,236.77c4,.37,6.27,2.21,6.34,5.93.08,3.97-2.1,6.25-6.09,6.25-3.69,0-5.84-2.11-5.97-5.8-.14-4.05,2.28-5.92,5.71-6.39Z"/>
    <path class="cls-2" d="M180.11,356.55c3.58.45,5.91,2.29,5.89,6.01-.02,3.67-2.2,5.88-5.87,5.89-3.67,0-5.86-2.19-5.89-5.87-.03-3.72,2.29-5.56,5.87-6.02Z"/>
    <path class="cls-2" d="M369.88,190.82c-.31,3.9-2.34,6.18-6.4,6.06-3.73-.11-5.83-2.28-5.83-6.01,0-4.04,2.29-6.21,6.3-6.12,3.76.08,5.62,2.33,5.92,6.07Z"/>
    <path class="cls-2" d="M252.45,83.88c-.33,3.66-2.14,6.1-5.86,6.17-3.69.08-5.95-2.16-6-5.86-.05-3.43,2.08-5.6,5.43-5.85,3.74-.28,5.71,2.02,6.43,5.54Z"/>
    <path class="cls-2" d="M93.73,209.49c-.36,3.66-2.18,6.09-5.91,6.13-3.7.04-5.94-2.21-5.96-5.91-.02-3.43,2.11-5.59,5.48-5.81,3.75-.25,5.71,2.06,6.39,5.59Z"/>
    <path class="cls-2" d="M282.26,368.59c-3.67-.3-6.04-2.08-6.16-5.8-.12-3.69,1.99-5.97,5.67-6.11,3.68-.14,5.95,1.99,6.11,5.67.16,3.73-2.1,5.66-5.62,6.24Z"/>
    <path class="cls-2" d="M380.4,226.34c-.43,3.6-2.28,5.92-6.01,5.9-3.69-.02-5.89-2.19-5.9-5.88,0-3.69,2.19-5.88,5.88-5.9,3.73-.03,5.59,2.28,6.03,5.88Z"/>
    <path class="cls-2" d="M269.06,87.89c-.55,3.54-2.43,5.85-6.14,5.75-3.66-.1-5.84-2.34-5.76-6,.08-3.65,2.33-5.82,6-5.77,3.7.06,5.51,2.42,5.9,6.01Z"/>
    <path class="cls-2" d="M150.09,346.24c-4.02-.66-6.03-2.97-5.61-6.95.4-3.75,2.85-5.57,6.51-5.29,4.06.32,5.94,2.89,5.55,6.83-.37,3.79-2.91,5.3-6.45,5.4Z"/>
    <path class="cls-2" d="M202.83,365.05c-.4,3.63-2.26,5.87-5.97,5.9-3.97.03-6.21-2.19-6.17-6.16.04-3.68,2.19-5.81,5.87-5.88,4.01-.07,5.97,2.26,6.27,6.13Z"/>
    <path class="cls-2" d="M344.92,134.74c-.47,4-2.32,6.31-6.06,6.3-3.7-.02-5.9-2.19-5.9-5.89,0-3.7,2.18-5.87,5.89-5.91,3.76-.04,5.49,2.39,6.08,5.51Z"/>
    <path class="cls-2" d="M119.85,311.53c3.58.51,5.86,2.4,5.76,6.14-.09,3.7-2.32,5.85-6.02,5.78-3.7-.07-5.83-2.31-5.78-6.01.05-3.74,2.4-5.55,6.04-5.91Z"/>
    <path class="cls-2" d="M315.39,112.69c-.49,3.82-2.41,6.01-6.13,5.98-4-.04-6.2-2.33-6.05-6.3.15-4.01,2.64-6.02,6.58-5.76,3.75.25,5.34,2.74,5.61,6.08Z"/>
    <path class="cls-2" d="M91.02,199.19c-3.48-.62-5.78-2.54-5.62-6.23.16-3.63,2.44-5.8,6.09-5.65,3.63.14,5.78,2.44,5.66,6.09-.13,3.67-2.51,5.46-6.14,5.8Z"/>
    <path class="cls-2" d="M219.39,368.41c-.51,3.89-2.41,6.09-6.15,6.04-3.71-.05-5.88-2.16-5.9-5.86-.02-4.01,2.31-6.19,6.29-6.05,3.76.13,5.38,2.62,5.77,5.87Z"/>
    <path class="cls-2" d="M195.02,98.57c-4.11-.29-6.47-2.06-6.61-5.75-.15-3.95,2.06-6.27,6.03-6.25,3.67.02,5.76,2.21,5.83,5.89.07,3.76-2.32,5.46-5.25,6.11Z"/>
    <path class="cls-2" d="M362.43,298.69c-3.58-.6-5.9-2.51-5.76-6.25.13-3.39,2.27-5.54,5.67-5.61,3.7-.07,5.99,2.13,6.05,5.81.05,3.74-2.36,5.59-5.96,6.05Z"/>
    <path class="cls-2" d="M102.13,262.61c-.68,3.73-2.99,5.75-6.94,5.28-3.71-.44-5.53-2.91-5.21-6.54.36-4.02,2.94-5.9,6.86-5.47,3.73.42,5.3,2.92,5.28,6.73Z"/>
    <path class="cls-2" d="M235.91,370.72c-.34,3.66-2.16,6-5.92,6.05-3.72.05-5.96-2.07-6.03-5.8-.07-3.72,2.07-5.94,5.8-6.03,3.76-.09,5.67,2.17,6.16,5.78Z"/>
    <path class="cls-2" d="M353.2,160.12c-3.63-.36-5.98-2.17-6.04-5.91-.05-3.7,2.08-5.94,5.78-6.01,3.7-.07,5.92,2.08,6.02,5.78.1,3.74-2.18,5.64-5.76,6.14Z"/>
    <path class="cls-2" d="M368.35,265.64c-3.64-.39-5.88-2.26-5.91-5.98-.03-3.98,2.19-6.22,6.17-6.17,3.69.04,5.82,2.19,5.89,5.87.07,4.02-2.26,5.98-6.14,6.28Z"/>
    <path class="cls-2" d="M112.7,298.87c-.58,3.52-2.51,5.78-6.24,5.62-3.68-.16-5.81-2.43-5.67-6.11.14-3.68,2.42-5.79,6.11-5.67,3.72.12,5.5,2.49,5.8,6.16Z"/>
    <path class="cls-2" d="M252.47,373.22c-.48,3.56-2.32,5.9-6.01,5.89-3.65-.02-5.88-2.22-5.88-5.87,0-3.65,2.22-5.86,5.87-5.89,3.69-.03,5.54,2.31,6.03,5.87Z"/>
    <path class="cls-2" d="M346.1,321.95c-.5,3.97-2.35,6.27-6.09,6.24-3.69-.03-5.88-2.22-5.87-5.91,0-3.69,2.21-5.86,5.91-5.88,3.75-.02,5.47,2.41,6.05,5.55Z"/>
    <path class="cls-2" d="M87.65,242.73c-.45,3.44-2.25,5.79-5.6,5.89-3.66.1-6.01-2.23-5.93-5.88.07-3.34,2.35-5.52,5.73-5.51,3.41.01,5.17,2.35,5.8,5.5Z"/>
    <path class="cls-2" d="M302.04,93.47c-.34,3.35-2.13,5.72-5.47,5.9-3.67.2-6.05-2.1-6.06-5.76-.01-3.37,2.24-5.57,5.61-5.64,3.41-.07,5.26,2.2,5.91,5.49Z"/>
    <path class="cls-2" d="M365.93,309.15c-.42,3.32-2.2,5.65-5.61,5.74-3.41.09-5.67-2.1-5.77-5.48-.1-3.4,2.09-5.67,5.48-5.77,3.43-.11,5.3,2.15,5.91,5.52Z"/>
    <path class="cls-2" d="M157.76,109.1c-3.55-.45-5.96-2.28-5.94-5.95.02-3.63,2.31-5.84,5.94-5.79,3.35.04,5.49,2.19,5.65,5.51.17,3.68-2.15,5.59-5.65,6.23Z"/>
    <path class="cls-2" d="M285.58,90.41c-.73,3.47-2.69,5.83-6.37,5.52-3.57-.31-5.74-2.7-5.39-6.36.31-3.29,2.54-5.39,5.92-5.27,3.66.13,5.48,2.51,5.84,6.11Z"/>
    <path class="cls-2" d="M92.85,284.45c-3.87-.55-6.27-2.44-6.18-6.17.08-3.38,2.29-5.59,5.68-5.61,3.69-.02,5.93,2.28,5.91,5.97-.02,3.47-2.49,5.09-5.41,5.8Z"/>
    <path class="cls-2" d="M91.3,226.23c-.47,3.57-2.33,5.97-6.07,5.91-3.4-.06-5.6-2.23-5.65-5.63-.05-3.7,2.22-5.97,5.92-5.95,3.43.02,5.23,2.31,5.8,5.67Z"/>
    <path class="cls-2" d="M262.96,382.58c-3.3-.55-5.56-2.37-5.59-5.74-.03-3.36,2.14-5.63,5.46-5.71,3.63-.08,5.95,2.25,5.85,5.88-.09,3.34-2.43,5.13-5.73,5.56Z"/>
    <path class="cls-2" d="M376.75,215.68c-3.53-.54-5.91-2.44-5.77-6.17.13-3.37,2.33-5.55,5.72-5.53,3.68.03,5.92,2.34,5.82,6.02-.09,3.4-2.4,5.18-5.78,5.67Z"/>
    <path class="cls-2" d="M331.82,115.57c-.43,3.95-2.24,6.39-5.91,6.43-3.64.04-5.88-2.23-5.91-5.87-.02-3.37,2.13-5.52,5.44-5.77,3.75-.28,5.5,2.24,6.38,5.2Z"/>
    <path class="cls-2" d="M219.05,78.39c-.6,3.37-2.48,5.63-5.9,5.52-3.39-.11-5.58-2.37-5.48-5.77.1-3.38,2.36-5.57,5.77-5.49,3.41.08,5.2,2.41,5.62,5.74Z"/>
    <path class="cls-2" d="M97.42,165.82c-3.39-.4-5.73-2.18-5.87-5.51-.14-3.64,2.16-5.98,5.79-5.95,3.33.03,5.5,2.29,5.53,5.65.02,3.39-2.27,5.18-5.45,5.81Z"/>
    <path class="cls-2" d="M93.57,182.53c-3.52-.59-5.9-2.52-5.71-6.25.17-3.36,2.4-5.55,5.81-5.48,3.68.08,5.92,2.41,5.77,6.1-.14,3.39-2.46,5.18-5.87,5.62Z"/>
    <path class="cls-2" d="M163.77,365.04c-3.86-.68-6.2-2.59-6.05-6.28.13-3.34,2.28-5.5,5.63-5.56,3.64-.07,5.92,2.14,6,5.78.08,3.74-2.51,5.38-5.58,6.06Z"/>
    <path class="cls-2" d="M118.5,124.56c3.32.48,5.67,2.28,5.72,5.66.05,3.66-2.29,6-5.95,5.87-3.34-.12-5.51-2.41-5.45-5.8.07-3.39,2.36-5.2,5.68-5.73Z"/>
    <path class="cls-2" d="M138.34,110.19c3.9.61,6.27,2.53,6.11,6.27-.15,3.38-2.36,5.56-5.77,5.51-3.69-.05-5.92-2.37-5.81-6.07.1-3.44,2.53-5.08,5.47-5.71Z"/>
    <path class="cls-2" d="M317.85,357.75c-3.47-.35-5.83-2.14-6.02-5.48-.2-3.67,2.1-6.05,5.76-6.06,3.37-.01,5.56,2.24,5.64,5.61.09,3.45-2.25,5.21-5.38,5.92Z"/>
    <path class="cls-2" d="M177.92,83.11c3.3.62,5.57,2.46,5.54,5.87-.04,3.38-2.23,5.64-5.59,5.66-3.66.02-5.97-2.35-5.8-6.02.15-3.35,2.51-5.14,5.86-5.51Z"/>
    <path class="cls-2" d="M229.77,87.79c-3.51-.63-5.85-2.53-5.7-6.2.13-3.32,2.29-5.49,5.62-5.55,3.63-.07,5.93,2.15,5.98,5.76.05,3.66-2.37,5.5-5.9,5.99Z"/>
    <path class="cls-2" d="M298.48,360.41c3.29.4,5.6,2.18,5.69,5.56.09,3.38-2.08,5.64-5.44,5.74-3.38.1-5.63-2.08-5.74-5.44-.11-3.39,2.12-5.28,5.49-5.86Z"/>
    <path class="cls-2" d="M216.38,383.94c-.4,3.45-2.36,5.5-5.8,5.33-3.13-.15-5.12-2.26-5.05-5.42.08-3.46,2.29-5.5,5.72-5.34,3.13.15,4.85,2.26,5.12,5.43Z"/>
    <path class="cls-2" d="M194.53,376.11c3.44.47,5.38,2.47,5.12,5.89-.24,3.15-2.38,5-5.51,4.85-3.44-.17-5.37-2.4-5.12-5.82.24-3.15,2.38-4.73,5.51-4.92Z"/>
    <path class="cls-2" d="M103.16,308.38c3.42.51,5.63,2.43,5.47,5.84-.15,3.39-2.46,5.49-5.88,5.29-3.09-.18-5.16-2.3-5.15-5.44,0-3.43,2.22-5.27,5.56-5.69Z"/>
    <path class="cls-2" d="M369.59,152.11c3.25.33,5.45,2.12,5.51,5.52.06,3.11-1.93,5.23-5,5.46-3.39.25-5.69-1.77-5.89-5.13-.2-3.37,1.9-5.34,5.38-5.85Z"/>
    <path class="cls-2" d="M355.34,131.87c3.3.38,5.61,2.19,5.61,5.62,0,3.41-2.22,5.58-5.65,5.56-3.14-.02-5.25-2.12-5.4-5.22-.17-3.43,1.99-5.38,5.44-5.96Z"/>
    <path class="cls-2" d="M318.3,96.15c-.62,3.58-2.61,5.6-6.08,5.28-3.17-.3-5.06-2.52-4.84-5.66.23-3.41,2.5-5.42,5.98-5.1,3.19.29,4.7,2.54,4.95,5.48Z"/>
    <path class="cls-2" d="M386.02,193.07c-.6,3.57-2.49,5.78-5.87,5.68-3.35-.1-5.51-2.35-5.41-5.71.1-3.35,2.34-5.49,5.71-5.42,3.42.07,5.06,2.47,5.57,5.46Z"/>
    <path class="cls-2" d="M337.77,344.61c-3.57-.6-5.79-2.49-5.69-5.87.1-3.35,2.35-5.53,5.72-5.43,3.35.1,5.5,2.34,5.44,5.72-.06,3.43-2.47,5.07-5.47,5.59Z"/>
    <path class="cls-2" d="M385.19,256.45c3.51.53,5.46,2.52,5.17,5.96-.27,3.16-2.44,5-5.57,4.82-3.42-.2-5.37-2.43-5.08-5.88.27-3.17,2.44-4.71,5.48-4.9Z"/>
    <path class="cls-2" d="M89.96,289.57c3.06.22,5.25,1.81,5.51,4.97.28,3.46-1.73,5.71-5.15,5.91-3.15.18-5.34-1.74-5.59-4.89-.28-3.45,1.73-5.45,5.24-5.99Z"/>
    <path class="cls-2" d="M347.84,118.75c-.5,3.43-2.49,5.42-5.93,5.15-3.15-.24-5.04-2.41-4.88-5.55.18-3.44,2.42-5.41,5.86-5.15,3.15.24,4.75,2.41,4.95,5.55Z"/>
    <path class="cls-2" d="M146.87,350.96c3.28.4,5.57,2.18,5.65,5.55.08,3.37-2.09,5.61-5.44,5.7-3.36.09-5.6-2.08-5.7-5.43-.09-3.38,2.12-5.26,5.49-5.82Z"/>
    <path class="cls-2" d="M191.3,76.03c.21-3.15,1.86-5.26,4.99-5.45,3.41-.21,5.63,1.76,5.75,5.21.11,3.15-1.8,5.26-4.93,5.45-3.41.21-5.41-1.76-5.81-5.21Z"/>
    <path class="cls-2" d="M117.37,339.67c-3.3-.36-5.5-2.2-5.47-5.58.04-3.38,2.25-5.47,5.64-5.4,3.1.07,5.16,2.12,5.25,5.21.1,3.38-1.97,5.32-5.42,5.77Z"/>
    <path class="cls-2" d="M79.46,253.98c3.43.45,5.56,2.37,5.42,5.75-.14,3.37-2.42,5.41-5.8,5.22-3.07-.17-5.09-2.26-5.09-5.37,0-3.4,2.16-5.23,5.47-5.6Z"/>
    <path class="cls-2" d="M392.83,245.24c-.24,3.16-1.93,5.25-5.06,5.41-3.42.18-5.66-1.83-5.7-5.28-.04-3.44,2.13-5.51,5.57-5.42,3.14.09,4.89,2.12,5.2,5.29Z"/>
    <path class="cls-2" d="M99.56,148.71c-3.21-.23-5.17-1.95-5.22-5.14-.05-3.5,2.05-5.5,5.52-5.36,3.2.13,5.02,2.19,4.93,5.38-.09,3.2-2.03,4.91-5.24,5.13Z"/>
    <path class="cls-2" d="M80.94,276.27c-.33,3.28-2.15,5.01-5.4,4.82-3.31-.19-4.88-2.26-4.65-5.48.21-3,2.07-4.56,5.03-4.52,3.31.05,4.88,1.97,5.02,5.18Z"/>
    <path class="cls-2" d="M390.86,223.53c3.29.19,5.21,1.87,5.24,5.13.03,3.24-1.82,5.15-5.07,5.18-3.25.03-5.15-1.82-5.18-5.07-.03-3.25,1.84-4.97,5.02-5.24Z"/>
    <path class="cls-2" d="M79.83,190.91c-.28,3.33-2.1,5.12-5.39,4.97-3.35-.15-4.99-2.23-4.8-5.48.17-3.02,2.03-4.67,5.04-4.67,3.34,0,5,1.91,5.16,5.17Z"/>
    <path class="cls-2" d="M356.53,329.95c-3.21-.28-5.14-2.04-5.14-5.23,0-3.51,2.15-5.46,5.61-5.27,3.19.17,4.98,2.28,4.85,5.46-.13,3.21-2.14,4.85-5.32,5.05Z"/>
    <path class="cls-2" d="M320.23,368.32c-.13,3.22-1.72,5.14-5.03,5.18-2.97.04-4.83-1.54-5.04-4.54-.22-3.22,1.35-5.29,4.67-5.48,3.26-.18,5.08,1.55,5.4,4.84Z"/>
    <path class="cls-2" d="M387.87,278.54c-.31,3.35-2.13,5.15-5.36,5.06-3.26-.09-5.06-2.08-4.96-5.31.1-3.26,2.08-5.06,5.31-4.96,3.27.09,4.88,2.09,5.02,5.22Z"/>
    <path class="cls-2" d="M253.92,67.78c-.32,3.32-2.16,5.05-5.43,4.87-3.33-.19-4.91-2.27-4.69-5.51.2-3.02,2.08-4.6,5.06-4.56,3.33.04,4.92,1.97,5.05,5.2Z"/>
    <path class="cls-2" d="M166.24,375.63c-.24,3.27-1.97,5.08-5.26,4.98-3.31-.11-4.97-2.1-4.83-5.34.13-2.99,1.92-4.64,4.9-4.69,3.33-.05,5,1.78,5.18,5.05Z"/>
    <path class="cls-2" d="M339.17,355.64c-.33,3.28-2.15,5-5.4,4.82-3.31-.19-4.87-2.26-4.65-5.48.21-3,2.07-4.57,5.03-4.52,3.31.05,4.89,1.97,5.02,5.18Z"/>
    <path class="cls-2" d="M387.9,176.78c-.39,3.37-2.29,5.13-5.51,4.98-3.27-.16-5.03-2.23-4.87-5.45.16-3.27,2.22-5.03,5.45-4.87,3.28.16,4.84,2.23,4.93,5.35Z"/>
    <path class="cls-2" d="M182.92,379.25c-.31,3.33-2.13,5.12-5.35,5.02-3.25-.1-5.03-2.07-4.93-5.3.1-3.25,2.07-5.03,5.3-4.93,3.26.1,4.85,2.09,4.98,5.21Z"/>
    <path class="cls-2" d="M270.53,71.08c-.16,3.27-1.83,5.16-5.17,5.17-3.01,0-4.86-1.65-5.03-4.67-.18-3.26,1.46-5.33,4.81-5.47,3.3-.14,5.11,1.65,5.38,4.98Z"/>
    <path class="cls-2" d="M135.58,352.9c-.09,3.12-1.64,5.19-4.92,5.34-3.22.15-5.28-1.59-5.44-4.86-.15-3.22,1.59-5.28,4.86-5.44,3.22-.15,5.11,1.6,5.49,4.96Z"/>
    <path class="cls-2" d="M284.91,379.21c-.39,3.42-2.24,5.27-5.42,5.16-3.5-.12-5.36-2.3-5.07-5.78.27-3.25,2.48-4.87,5.61-4.67,3.21.21,4.74,2.33,4.88,5.28Z"/>
    <path class="cls-2" d="M127.27,113.75c-.18,3.24-1.86,5.17-5.12,5.21-3.25.04-5.17-1.81-5.21-5.07-.04-3.25,1.81-5.17,5.07-5.21,3.25-.04,5.01,1.82,5.26,5.07Z"/>
    <path class="cls-2" d="M70.98,202.3c3.23.13,5.16,1.72,5.2,5.06.04,2.98-1.54,4.86-4.56,5.06-3.24.22-5.32-1.35-5.51-4.69-.18-3.27,1.55-5.1,4.87-5.42Z"/>
    <path class="cls-2" d="M231.53,387.73c-.37,3.29-2.28,5.03-5.5,4.88-3.28-.15-5.03-2.23-4.87-5.45.16-3.28,2.23-5.03,5.45-4.87,3.28.16,4.84,2.23,4.92,5.45Z"/>
    <path class="cls-2" d="M248.03,389.77c-.2,3.29-1.9,5.18-5.23,5.12-3.34-.06-5.07-2.03-4.97-5.32.09-3.02,1.86-4.75,4.88-4.83,3.31-.08,5.08,1.72,5.32,5.03Z"/>
    <path class="cls-2" d="M333.31,99.51c-.16,3.27-1.83,5.16-5.17,5.17-3.01,0-4.86-1.65-5.03-4.67-.18-3.26,1.46-5.33,4.81-5.47,3.3-.14,5.11,1.65,5.38,4.98Z"/>
    <path class="cls-2" d="M161.23,81.39c3.25.25,5.12,2,5.08,5.25-.04,3.26-1.95,5.11-5.2,5.08-3.26-.04-5.11-1.95-5.08-5.2.03-3.26,1.96-4.95,5.2-5.13Z"/>
    <path class="cls-2" d="M141.02,104.85c-3.2-.21-5.14-1.92-5.18-5.11-.04-3.5,2.02-5.46,5.49-5.33,3.2.12,4.99,2.16,4.9,5.34-.09,3.2-2.01,4.89-5.21,5.09Z"/>
    <path class="cls-2" d="M398.41,211.97c-.14,3.22-1.72,5.14-5.04,5.18-2.97.03-4.83-1.54-5.03-4.55-.22-3.23,1.36-5.29,4.68-5.47,3.26-.18,5.07,1.56,5.39,4.85Z"/>
    <path class="cls-2" d="M68.6,227.86c-3.28-.33-5.01-2.15-4.82-5.4.19-3.31,2.26-4.88,5.48-4.65,3,.21,4.56,2.07,4.52,5.03-.05,3.31-1.97,4.88-5.18,5.02Z"/>
    <path class="cls-2" d="M384.24,295.09c-.24,3.3-1.99,5.13-5.3,5.02-3.34-.11-5.02-2.12-4.87-5.39.13-3.02,1.94-4.7,4.95-4.73,3.33-.04,5.02,1.82,5.22,5.1Z"/>
    <path class="cls-2" d="M402.69,159.23c2.45.21,4.17,1.55,4.37,3.93.23,2.7-1.44,4.52-4.13,4.67-2.45.13-4.16-1.49-4.37-3.86-.23-2.7,1.45-4.29,4.13-4.74Z"/>
    <path class="cls-2" d="M375.31,344.95c-.57,2.71-2.15,4.49-4.85,4.22-2.61-.27-4.31-2.13-3.98-4.88.29-2.37,2-3.97,4.43-3.87,2.71.11,4.12,1.93,4.39,4.53Z"/>
    <path class="cls-2" d="M70.1,239.03c-.09,3.03-1.49,4.97-4.48,5.15-3.24.2-5.19-1.52-5.21-4.83-.02-2.98,1.7-4.71,4.69-4.79,3.01-.08,4.59,1.64,5,4.47Z"/>
    <path class="cls-2" d="M101.78,347.06c-.32,2.62-1.74,4.48-4.43,4.58-2.7.1-4.51-1.65-4.62-4.32-.11-2.69,1.65-4.51,4.32-4.62,2.71-.11,4.21,1.69,4.73,4.36Z"/>
    <path class="cls-2" d="M285.59,61.52c-2.91-.63-4.72-2.2-4.44-4.93.27-2.62,2.14-4.35,4.92-4.01,2.38.29,3.98,2,3.91,4.47-.08,2.79-2.05,4.05-4.38,4.47Z"/>
    <path class="cls-2" d="M188.26,56.85c-.32,2.63-1.74,4.5-4.44,4.59-2.71.1-4.52-1.65-4.63-4.33-.11-2.71,1.65-4.52,4.33-4.63,2.72-.12,4.22,1.7,4.74,4.37Z"/>
    <path class="cls-2" d="M281.96,68.56c3.17.22,5.03,1.87,4.94,5.18-.08,2.99-1.82,4.7-4.82,4.72-3.3.02-5.08-1.83-5.01-5.11.06-3.01,1.86-4.54,4.89-4.79Z"/>
    <path class="cls-2" d="M257.06,414.35c-2.83-.6-4.53-2.16-4.2-4.93.29-2.41,2.05-3.98,4.49-3.77,2.67.23,4.33,2.05,4.02,4.81-.28,2.44-2.09,3.62-4.31,3.88Z"/>
    <path class="cls-2" d="M49.66,232.59c2.56.22,4.36,1.62,4.5,4.29.12,2.4-1.42,4.11-3.79,4.41-2.73.35-4.57-1.31-4.86-3.88-.3-2.66,1.43-4.26,4.15-4.82Z"/>
    <path class="cls-2" d="M240.97,411.03c-2.84-.18-4.72-1.61-4.95-4.2-.26-2.94,1.58-4.88,4.51-4.94,2.65-.05,4.4,1.72,4.52,4.37.12,2.73-1.74,4.12-4.09,4.77Z"/>
    <path class="cls-2" d="M359.14,341.44c-.35,2.9-1.9,4.68-4.91,4.63-3.32-.06-5.02-2.04-4.79-5.27.22-2.98,2.14-4.54,5.11-4.37,3.02.17,4.43,2.05,4.59,5.01Z"/>
    <path class="cls-2" d="M223.56,46.25c-.25,2.45-1.62,4.16-4.01,4.32-2.71.18-4.57-1.52-4.6-4.22-.03-2.71,1.78-4.44,4.51-4.32,2.41.1,3.8,1.78,4.11,4.23Z"/>
    <path class="cls-2" d="M60.34,166.14c2.9.52,4.71,2.05,4.54,4.77-.17,2.66-2.05,4.38-4.77,4.15-2.37-.2-4.02-1.89-4.02-4.34,0-2.79,1.93-4.08,4.26-4.58Z"/>
    <path class="cls-2" d="M386.42,155.19c2.92.47,4.75,2.08,4.53,5.13-.22,3.02-2.17,4.66-5.18,4.4-2.7-.23-4.32-1.97-4.27-4.73.05-3.07,1.92-4.55,4.92-4.8Z"/>
    <path class="cls-2" d="M224.1,399.3c2.66.49,4.47,1.94,4.47,4.64,0,2.96-1.84,4.79-4.81,4.71-2.67-.07-4.4-1.84-4.42-4.52-.03-3,1.91-4.49,4.76-4.83Z"/>
    <path class="cls-2" d="M114.11,345.91c2.9.53,4.68,2.2,4.39,5.24-.29,3-2.26,4.61-5.28,4.28-2.7-.3-4.27-2.07-4.16-4.83.12-3.06,2.02-4.51,5.05-4.69Z"/>
    <path class="cls-2" d="M85.49,157.96c-.44,2.91-2.07,4.65-5.12,4.48-3.04-.16-4.69-2.02-4.54-5.04.15-3.05,2.02-4.68,5.04-4.54,3.07.14,4.49,2.06,4.62,5.11Z"/>
    <path class="cls-2" d="M76.85,169.25c3.2.14,5.13,1.71,5.12,5.03,0,2.99-1.68,4.76-4.67,4.85-3.27.1-5.13-1.66-5.14-4.96-.01-3.01,1.73-4.58,4.69-4.92Z"/>
    <path class="cls-2" d="M68.35,154.28c-.57,2.7-2.12,4.34-4.86,4-2.41-.3-3.91-2.05-3.69-4.46.24-2.64,2.04-4.27,4.78-3.93,2.41.29,3.61,2.04,3.77,4.39Z"/>
    <path class="cls-2" d="M303.47,77.3c-.36,2.9-1.91,4.67-4.92,4.61-3.32-.07-5.02-2.05-4.78-5.28.22-2.98,2.15-4.54,5.12-4.36,3.01.18,4.43,2.05,4.58,5.03Z"/>
    <path class="cls-2" d="M412.28,232.09c-.43,2.84-1.85,4.68-4.5,4.76-2.94.1-4.84-1.72-4.8-4.64.04-2.91,1.97-4.69,4.92-4.53,2.67.15,3.94,2.1,4.38,4.41Z"/>
    <path class="cls-2" d="M207.24,405.26c-2.85-.52-4.75-2.08-4.54-5.06.2-2.92,2.14-4.64,5.08-4.4,2.61.21,4.29,1.96,4.26,4.65-.03,2.98-1.92,4.46-4.81,4.8Z"/>
    <path class="cls-2" d="M400.35,298.37c-.39,2.81-1.81,4.68-4.46,4.73-2.93.06-4.8-1.82-4.68-4.75.11-2.61,1.93-4.32,4.6-4.27,2.7.05,4.01,1.95,4.54,4.28Z"/>
    <path class="cls-2" d="M203.86,59.5c-.53,2.85-2.11,4.73-5.1,4.5-2.93-.23-4.63-2.17-4.36-5.13.24-2.62,1.99-4.29,4.69-4.23,2.99.06,4.47,1.95,4.77,4.86Z"/>
    <path class="cls-2" d="M268.85,49.99c2.64.32,4.51,1.74,4.61,4.45.09,2.72-1.65,4.54-4.34,4.64-2.72.11-4.53-1.65-4.64-4.34-.11-2.73,1.7-4.24,4.38-4.75Z"/>
    <path class="cls-2" d="M315.26,84.29c-2.96-.32-4.87-1.83-4.82-4.87.05-3.01,1.89-4.75,4.91-4.67,2.72.07,4.41,1.76,4.53,4.47.13,3.05-1.69,4.62-4.61,5.07Z"/>
    <path class="cls-2" d="M394.52,180.26c.36-2.86,1.87-4.79,4.88-4.73,2.68.05,4.44,1.79,4.49,4.47.05,2.97-1.78,4.81-4.76,4.78-2.71-.02-4.14-1.85-4.61-4.52Z"/>
    <path class="cls-2" d="M297.13,399.38c-.52,2.72-2.08,4.5-4.78,4.28-2.63-.22-4.34-2.09-4.06-4.82.24-2.36,1.94-4,4.38-3.94,2.71.07,4.15,1.87,4.46,4.48Z"/>
    <path class="cls-2" d="M401.45,270.19c-2.62-.45-4.45-1.9-4.47-4.62-.03-2.99,1.82-4.88,4.8-4.77,2.97.11,4.74,2.1,4.48,5.08-.23,2.65-2.09,4.08-4.81,4.31Z"/>
    <path class="cls-2" d="M393.2,143.2c-.35,2.77-1.77,4.63-4.47,4.72-2.71.08-4.52-1.67-4.61-4.35-.09-2.7,1.66-4.5,4.35-4.62,2.75-.11,4.16,1.78,4.74,4.25Z"/>
    <path class="cls-2" d="M300.82,64.9c-2.7-.47-4.42-2.07-4.18-4.8.21-2.39,1.95-4.04,4.42-3.9,2.72.15,4.42,1.99,4.18,4.72-.21,2.39-1.95,3.76-4.42,3.98Z"/>
    <path class="cls-2" d="M376.93,140.24c-.09,3.52-1.49,5.47-4.51,5.65-3.26.2-5.23-1.52-5.24-4.86-.02-3.01,1.71-4.7,4.72-4.82,3.1-.12,4.47,1.82,5.04,4.03Z"/>
    <path class="cls-2" d="M60.43,277.21c-2.65-.43-4.46-1.88-4.5-4.58-.05-2.7,1.67-4.53,4.33-4.63,2.97-.1,4.85,1.78,4.77,4.76-.07,2.69-1.96,4.11-4.6,4.45Z"/>
    <path class="cls-2" d="M83.29,136.27c2.83.59,4.68,2.22,4.38,5.21-.3,2.91-2.26,4.6-5.24,4.25-2.62-.31-4.26-2.08-4.13-4.79.13-2.99,2.04-4.45,4.99-4.67Z"/>
    <path class="cls-2" d="M105.71,330.39c-.35,3.28-1.9,5.06-4.93,5.03-3.33-.04-5.06-2-4.84-5.26.2-3,2.11-4.55,5.1-4.42,3.07.13,4.38,2.1,4.67,4.65Z"/>
    <path class="cls-2" d="M373.18,333.01c-2.87-.44-4.78-1.96-4.65-4.95.13-2.93,2.01-4.68,4.97-4.51,2.64.15,4.33,1.87,4.37,4.54.05,2.99-1.82,4.5-4.69,4.92Z"/>
    <path class="cls-2" d="M128.01,85.13c-2.66-.41-4.48-1.9-4.39-4.61.1-2.68,1.94-4.39,4.65-4.25,2.39.12,4.06,1.8,4.11,4.22.06,2.73-1.71,4.21-4.37,4.64Z"/>
    <path class="cls-2" d="M88.8,328.34c-.49,2.63-1.95,4.42-4.63,4.4-2.66-.01-4.47-1.74-4.51-4.38-.04-2.94,1.86-4.8,4.8-4.65,2.63.13,4.05,2.01,4.34,4.63Z"/>
    <path class="cls-2" d="M58.23,182.65c2.68.52,4.5,2.02,4.38,4.76-.11,2.69-1.93,4.45-4.65,4.34-2.69-.11-4.44-1.92-4.34-4.64.1-2.72,1.97-4.13,4.61-4.45Z"/>
    <path class="cls-2" d="M149.4,83.07c-.4,2.95-1.96,4.8-5.01,4.66-3.02-.14-4.7-2.03-4.52-5.05.16-2.71,1.87-4.35,4.61-4.38,3.06-.03,4.58,1.81,4.92,4.77Z"/>
    <path class="cls-2" d="M355.44,357.4c-.33,3.1-1.83,5.04-4.81,5.03-2.67,0-4.45-1.73-4.54-4.38-.1-2.96,1.71-4.79,4.66-4.84,2.73-.04,4.05,1.88,4.68,4.18Z"/>
    <path class="cls-2" d="M336.43,82.68c-.33,2.88-1.75,4.77-4.42,4.88-2.98.12-4.87-1.74-4.81-4.72.05-2.67,1.87-4.38,4.57-4.39,2.75-.01,4.08,1.9,4.67,4.23Z"/>
    <path class="cls-2" d="M348.27,81.16c2.66.35,4.24,1.76,4.2,4.22-.05,2.76-1.83,4.37-4.58,4.14-2.44-.21-3.9-1.95-3.73-4.42.17-2.47,1.85-3.72,4.1-3.94Z"/>
    <path class="cls-2" d="M210.74,61.99c.43-3.36,1.98-5.15,5.03-5.07,3.02.09,4.72,1.87,4.65,4.89-.07,3.02-1.86,4.68-4.88,4.66-3.14-.01-4.35-2.09-4.8-4.49Z"/>
    <path class="cls-2" d="M111.3,371.64c-2.68-.45-4.36-2.04-4.13-4.74.2-2.37,1.92-3.99,4.37-3.85,2.7.15,4.36,1.97,4.13,4.67-.2,2.37-1.92,3.72-4.37,3.93Z"/>
    <path class="cls-2" d="M128.05,374.41c-2.84-.4-4.76-1.93-4.66-4.93.09-2.67,1.85-4.41,4.52-4.42,2.96,0,4.78,1.84,4.71,4.81-.06,2.69-1.9,4.11-4.57,4.54Z"/>
    <path class="cls-2" d="M103.25,121.88c2.98.3,4.75,1.84,4.77,4.85.02,3.28-1.8,5.08-5.07,5.01-2.98-.06-4.68-1.79-4.73-4.77-.05-3.31,1.85-4.9,5.02-5.09Z"/>
    <path class="cls-2" d="M375.56,119.85c2.62.39,4.49,1.82,4.52,4.48.04,2.94-1.86,4.81-4.8,4.66-2.61-.14-4.33-1.96-4.24-4.65.09-2.67,1.91-4.09,4.52-4.49Z"/>
    <path class="cls-2" d="M232.18,70.23c-3.21-.27-5-2-4.85-5.28.14-2.99,1.93-4.64,4.91-4.6,3.3.04,5.02,1.95,4.89,5.21-.12,3.01-1.97,4.48-4.96,4.67Z"/>
    <path class="cls-2" d="M91.15,124.24c-.34,2.76-1.76,4.63-4.46,4.72-2.71.09-4.52-1.65-4.63-4.33-.11-2.71,1.65-4.51,4.33-4.63,2.74-.12,4.17,1.76,4.76,4.24Z"/>
    <path class="cls-2" d="M397.1,190.71c2.88.43,4.66,2,4.53,5.01-.13,2.99-1.94,4.67-4.93,4.56-2.99-.11-4.66-1.93-4.57-4.92.1-3.02,1.99-4.46,4.96-4.66Z"/>
    <path class="cls-2" d="M363.86,121.24c-.44,2.91-2.07,4.65-5.12,4.48-3.04-.16-4.69-2.02-4.54-5.04.15-3.05,2.01-4.68,5.04-4.54,3.07.14,4.49,2.06,4.62,5.11Z"/>
    <path class="cls-2" d="M151.35,67.77c-.56,2.72-2.13,4.43-4.89,4.13-2.41-.27-4.01-2.03-3.81-4.49.21-2.69,2.05-4.38,4.81-4.07,2.41.26,3.71,2.03,3.9,4.44Z"/>
    <path class="cls-2" d="M336.48,371.81c-.27,2.9-1.76,4.83-4.75,4.87-2.69.03-4.48-1.69-4.6-4.35-.14-2.98,1.67-4.84,4.64-4.9,2.71-.05,4.18,1.75,4.72,4.39Z"/>
    <path class="cls-2" d="M144.56,378.07c-2.93-.33-4.75-1.84-4.72-4.87.03-3,1.78-4.73,4.78-4.72,2.99.02,4.72,1.78,4.72,4.77,0,3.03-1.85,4.51-4.77,4.81Z"/>
    <path class="cls-2" d="M168.32,70.28c-.6,2.81-2.22,4.68-5.19,4.37-2.88-.3-4.59-2.25-4.24-5.21.31-2.6,2.07-4.25,4.77-4.13,2.97.13,4.42,2.04,4.66,4.97Z"/>
    <path class="cls-2" d="M190.85,393.34c2.85.48,4.76,2.04,4.58,5.07-.17,2.67-1.95,4.41-4.66,4.34-2.98-.07-4.79-1.95-4.63-4.95.14-2.69,1.99-4.11,4.72-4.45Z"/>
    <path class="cls-2" d="M413.42,203.37c-2.57-.37-4.19-1.8-4.14-4.27.06-2.76,1.87-4.41,4.63-4.17,2.44.22,3.94,1.99,3.75,4.47-.19,2.46-1.86,3.78-4.25,3.96Z"/>
    <path class="cls-2" d="M73.92,297.55c-3.36-.45-5.23-1.99-5.11-5.03.12-2.99,2-4.7,5-4.54,2.69.14,4.32,1.85,4.41,4.57.1,3.13-1.98,4.39-4.3,4.99Z"/>
    <path class="cls-2" d="M105.78,105.48c2.81.6,4.68,2.22,4.37,5.19-.3,2.88-2.25,4.59-5.21,4.24-2.6-.31-4.25-2.07-4.13-4.77.13-2.97,2.04-4.42,4.97-4.66Z"/>
    <path class="cls-2" d="M397.71,314.15c-.55,2.72-2.12,4.42-4.87,4.11-2.4-.27-3.99-2.02-3.79-4.47.21-2.68,2.04-4.36,4.79-4.06,2.4.26,3.69,2.02,3.88,4.42Z"/>
    <path class="cls-2" d="M276.71,400.57c-3.36-.29-5.29-1.77-5.33-4.76-.04-2.97,1.78-4.76,4.76-4.76,2.7,0,4.4,1.68,4.62,4.33.25,3.05-1.75,4.48-4.05,5.19Z"/>
    <path class="cls-2" d="M178.92,394.51c-.41,2.83-1.93,4.75-4.92,4.65-2.66-.09-4.4-1.85-4.41-4.51,0-2.95,1.84-4.77,4.8-4.7,2.68.06,4.1,1.9,4.53,4.56Z"/>
    <path class="cls-2" d="M59.15,203.73c-.32,2.63-1.74,4.5-4.44,4.59-2.71.09-4.52-1.66-4.63-4.34-.1-2.71,1.65-4.52,4.33-4.63,2.72-.11,4.22,1.7,4.74,4.37Z"/>
    <path class="cls-2" d="M258.97,388.44c3.48.3,5.32,1.81,5.32,4.9,0,3.05-1.72,4.81-4.77,4.83-3.05.02-4.77-1.71-4.84-4.77-.08-3.18,1.97-4.44,4.3-4.96Z"/>
    <path class="cls-2" d="M56.74,220.33c-.32,2.6-1.74,4.45-4.4,4.54-2.68.09-4.48-1.65-4.58-4.3-.1-2.67,1.65-4.48,4.3-4.58,2.69-.11,4.18,1.69,4.69,4.34Z"/>
    <path class="cls-2" d="M179.84,67.43c3.04.1,4.98,1.51,5.13,4.56.17,3.3-1.57,5.24-4.93,5.23-3.03,0-4.74-1.75-4.8-4.79-.05-3.05,1.67-4.65,4.59-5.01Z"/>
    <path class="cls-2" d="M295.89,387.58c-2.91-.44-4.65-2.07-4.48-5.12.16-3.04,2.02-4.69,5.04-4.54,3.04.15,4.68,2.01,4.54,5.04-.14,3.07-2.06,4.49-5.11,4.62Z"/>
    <path class="cls-2" d="M403.93,244.07c2.87.39,4.8,1.89,4.73,4.86-.07,2.92-1.93,4.69-4.88,4.59-2.65-.09-4.35-1.81-4.45-4.45-.11-2.98,1.75-4.51,4.6-4.99Z"/>
    <path class="cls-2" d="M317.52,385.1c-.54,2.78-2,4.58-4.67,4.56-2.93-.03-4.8-1.88-4.63-4.81.16-2.89,2.14-4.64,5.08-4.34,2.63.27,3.92,2.19,4.22,4.6Z"/>
    <path class="cls-2" d="M365.9,104.44c-.52,2.65-2.01,4.45-4.7,4.34-2.64-.11-4.4-1.92-4.29-4.59.11-2.64,1.91-4.39,4.59-4.29,2.67.1,4.08,1.95,4.4,4.54Z"/>
    <path class="cls-2" d="M162.23,392.07c-.56,2.89-2.06,4.69-4.77,4.58-2.67-.11-4.43-1.92-4.32-4.61.1-2.67,1.91-4.39,4.61-4.33,2.76.06,4,2.06,4.47,4.36Z"/>
    <path class="cls-2" d="M344.69,97.16c2.95.33,4.85,1.84,4.78,4.88-.06,3.01-1.91,4.73-4.92,4.63-2.72-.09-4.39-1.77-4.49-4.49-.12-3.05,1.7-4.61,4.63-5.03Z"/>
    <path class="cls-2" d="M124.77,92.42c2.9.53,4.68,2.2,4.39,5.24-.29,3-2.26,4.61-5.28,4.28-2.7-.3-4.27-2.07-4.16-4.83.12-3.06,2.02-4.51,5.05-4.69Z"/>
    <path class="cls-2" d="M75.72,309.03c-.34,2.73-1.75,4.59-4.43,4.69-2.69.1-4.5-1.65-4.6-4.31-.11-2.69,1.65-4.49,4.3-4.61,2.72-.12,4.14,1.75,4.73,4.23Z"/>
    <path class="cls-2" d="M145.27,389.74c-.16,2.36-1.46,4.04-3.91,4.24-2.46.2-4.24-1.24-4.47-3.7-.27-2.76,1.35-4.56,4.1-4.64,2.47-.08,3.9,1.52,4.28,4.1Z"/>
    <path class="cls-2" d="M256.97,50.8c-.34,2.75-1.75,4.61-4.44,4.7-2.7.1-4.51-1.65-4.62-4.32-.11-2.7,1.65-4.5,4.32-4.62,2.73-.12,4.16,1.75,4.74,4.24Z"/>
    <path class="cls-2" d="M63.12,260.83c-3.3-.54-5.15-2.12-4.96-5.14.2-2.98,2.13-4.65,5.11-4.41,2.66.21,4.27,1.94,4.29,4.67.02,3.12-2.08,4.33-4.44,4.88Z"/>
    <path class="cls-2" d="M398.34,286.78c-3.07-.44-4.99-1.96-4.89-4.96.09-2.67,1.85-4.41,4.52-4.42,2.96,0,4.77,1.84,4.71,4.81-.05,2.71-1.98,4.03-4.35,4.57Z"/>
    <path class="cls-2" d="M376.44,306.76c3.05.13,4.97,1.56,5.11,4.62.14,3.03-1.5,4.89-4.54,5.04-3.02.15-4.88-1.49-5.04-4.54-.16-3.06,1.58-4.68,4.48-5.12Z"/>
    <path class="cls-2" d="M91.42,311.41c-.17,3.03-1.62,4.92-4.69,5.02-3.03.1-4.86-1.57-4.97-4.61-.11-3.03,1.56-4.85,4.61-4.98,3.06-.12,4.66,1.64,5.06,4.57Z"/>
    <path class="cls-2" d="M61.17,289.19c-.37,2.58-1.81,4.17-4.27,4.1-2.75-.08-4.38-1.87-4.11-4.63.24-2.45,2.01-3.91,4.47-3.71,2.45.2,3.75,1.87,3.91,4.24Z"/>
    <path class="cls-2" d="M235.84,53.18c-2.65-.38-4.51-1.85-4.46-4.58.05-2.7,1.88-4.44,4.62-4.35,2.42.08,4.11,1.76,4.21,4.18.11,2.74-1.66,4.26-4.37,4.74Z"/>
    <path class="cls-2" d="M410.03,220.28c-2.63-.32-4.5-1.74-4.59-4.44-.09-2.71,1.66-4.52,4.34-4.63,2.71-.1,4.52,1.65,4.63,4.33.11,2.72-1.7,4.22-4.37,4.74Z"/>
    <path class="cls-2" d="M112.2,93.85c-.56,2.7-2.12,4.37-4.86,4.05-2.4-.28-3.94-2.03-3.74-4.46.23-2.65,2.03-4.31,4.78-3.99,2.41.28,3.65,2.03,3.82,4.4Z"/>
    <path class="cls-2" d="M47.7,269.89c-.19,2.71-1.4,4.03-3.75,4.03-2.68,0-3.96-1.55-3.79-4.13.16-2.35,1.67-3.46,3.97-3.36,2.39.11,3.4,1.6,3.56,3.46Z"/>
    <path class="cls-2" d="M254.81,31.94c2.37.19,3.65,1.44,3.6,3.79-.06,2.36-1.4,3.62-3.75,3.57-2.37-.05-3.61-1.4-3.57-3.75.04-2.38,1.43-3.51,3.72-3.61Z"/>
    <path class="cls-2" d="M418.19,263.97c2.22.08,3.67,1.18,3.81,3.48.16,2.53-1.1,4.11-3.72,4.15-2.6.03-3.94-1.44-3.86-4.01.08-2.31,1.46-3.46,3.77-3.61Z"/>
    <path class="cls-2" d="M173.03,37.17c-.48,2.15-1.8,3.48-4.12,3.13-1.97-.3-3.18-1.69-2.96-3.74.24-2.3,1.76-3.55,4.06-3.22,1.98.29,3,1.69,3.02,3.83Z"/>
    <path class="cls-2" d="M434.67,267.93c1.96.25,3.36,1.33,3.47,3.29.11,2.01-1.25,3.36-3.19,3.48-2.01.12-3.35-1.24-3.48-3.19-.13-2.03,1.3-3.1,3.21-3.58Z"/>
    <path class="cls-2" d="M30.75,266.74c-.47,1.92-1.56,3.35-3.58,3.22-1.94-.12-3.31-1.47-3.19-3.48.12-1.94,1.46-3.31,3.48-3.19,1.97.11,3.04,1.5,3.29,3.46Z"/>
    <path class="cls-2" d="M271.4,41.7c-2.29-.1-3.68-1.23-3.72-3.6-.04-2.34,1.21-3.69,3.56-3.74,2.34-.05,3.69,1.2,3.74,3.56.05,2.35-1.23,3.59-3.58,3.78Z"/>
    <path class="cls-2" d="M254.31,443.1c-.23,1.76-1.23,2.96-2.96,3.09-1.79.14-3.06-1.09-3.21-2.76-.18-2.03,1.14-3.39,3.17-3.36,1.73.02,2.73,1.28,3,3.03Z"/>
    <path class="cls-2" d="M234.35,436.22c2.05.27,3.39,1.35,3.49,3.31.09,1.74-1.17,2.98-2.78,3.24-2.02.32-3.41-1.03-3.67-2.89-.28-2.02,1.24-3.06,2.96-3.65Z"/>
    <path class="cls-2" d="M189.76,40.25c-.05,2.24-1.1,3.69-3.42,3.8-2.56.13-4.02-1.2-3.97-3.81.04-2.31,1.38-3.54,3.67-3.54,2.3,0,3.53,1.24,3.72,3.55Z"/>
    <path class="cls-2" d="M221.43,437.31c-.48,1.89-1.55,3.32-3.54,3.19-1.91-.12-3.28-1.46-3.16-3.44.12-1.91,1.46-3.27,3.44-3.16,1.93.11,3.01,1.49,3.26,3.42Z"/>
    <path class="cls-2" d="M437.27,258.23c-1.97-.25-3.36-1.34-3.46-3.32-.1-2.02,1.26-3.38,3.22-3.48,2.02-.11,3.37,1.25,3.49,3.22.12,2.03-1.3,3.12-3.24,3.58Z"/>
    <path class="cls-2" d="M156.22,34.57c-.52,1.93-1.64,3.37-3.64,3.12-1.87-.24-3.24-1.64-2.92-3.68.25-1.62,1.5-2.89,3.24-2.81,1.98.09,3.06,1.44,3.32,3.37Z"/>
    <path class="cls-2" d="M26.89,283.14c-.17,1.73-1.17,2.95-2.88,3.13-1.79.19-3.09-1.02-3.29-2.67-.24-2.03,1.06-3.4,3.08-3.44,1.74-.03,2.75,1.22,3.09,2.99Z"/>
    <path class="cls-2" d="M46.55,257.61c-2.65-.15-4.19-1.42-4.25-4-.05-2.28,1.26-3.77,3.51-3.97,2.5-.23,4.22,1.06,4.41,3.64.19,2.57-1.29,3.96-3.67,4.33Z"/>
    <path class="cls-2" d="M204.95,433.52c-.54,2.18-1.63,3.6-3.66,3.47-1.96-.13-3.33-1.48-3.2-3.5.12-1.96,1.48-3.3,3.5-3.21,2.03.09,2.94,1.63,3.36,3.24Z"/>
    <path class="cls-2" d="M237.45,28.41c2.71.01,4.19,1.05,4.34,3.4.15,2.29-1.01,3.76-3.35,3.92-2.29.15-3.73-1-3.92-3.35-.19-2.35,1.16-3.54,2.93-3.96Z"/>
    <path class="cls-2" d="M291.6,40.7c-.32,2.28-1.66,3.48-3.98,3.32-2.35-.17-3.51-1.63-3.35-3.93.16-2.36,1.63-3.5,3.93-3.36,2.37.15,3.39,1.64,3.4,3.97Z"/>
    <path class="cls-2" d="M424.43,251.25c-.15,2.48-1.49,3.88-4.07,3.78-2.3-.09-3.58-1.45-3.59-3.74,0-2.6,1.45-3.96,4.03-3.87,2.31.08,3.47,1.47,3.63,3.84Z"/>
    <path class="cls-2" d="M414.37,288.19c-2.32-.26-3.56-1.58-3.48-3.91.1-2.71,1.76-3.89,4.32-3.62,2.38.25,3.4,1.88,3.21,4.15-.2,2.37-1.72,3.4-4.05,3.39Z"/>
    <path class="cls-2" d="M290.04,432.24c-.18,1.94-1.25,3.28-3.2,3.45-1.74.15-2.97-1.08-3.29-2.7-.41-2.06.97-3.44,2.78-3.74,1.98-.34,3.13,1.1,3.72,2.99Z"/>
    <path class="cls-2" d="M40.37,290.4c-2.27-.23-3.68-1.42-3.6-3.76.09-2.32,1.52-3.58,3.83-3.46,2.02.11,3.25,1.37,3.32,3.4.08,2.34-1.27,3.55-3.55,3.82Z"/>
    <path class="cls-2" d="M33.24,250.32c-.5,2.1-1.76,3.51-4.05,3.17-1.9-.28-3.19-1.64-2.98-3.67.22-2.24,1.71-3.55,3.98-3.24,1.91.26,2.98,1.65,3.06,3.73Z"/>
    <path class="cls-2" d="M434.67,286.63c-.25,1.96-1.33,3.36-3.29,3.47-2.01.11-3.36-1.25-3.48-3.19-.12-2.01,1.24-3.35,3.19-3.48,2.03-.13,3.1,1.3,3.58,3.21Z"/>
    <path class="cls-2" d="M184.74,434.71c-1.92-.47-3.35-1.56-3.22-3.58.12-1.94,1.47-3.31,3.48-3.19,1.94.12,3.31,1.46,3.19,3.48-.11,1.97-1.5,3.04-3.46,3.29Z"/>
    <path class="cls-2" d="M270.17,432.46c-2.15-.32-3.61-1.48-3.5-3.77.1-1.96,1.42-3.26,3.4-3.26,2.25,0,3.63,1.42,3.54,3.68-.08,1.98-1.46,3.03-3.44,3.35Z"/>
    <path class="cls-2" d="M206.55,42.81c-.24,2.64-1.72,3.98-4.29,3.8-2.31-.16-3.57-1.64-3.5-3.95.08-2.64,1.68-3.96,4.25-3.79,2.32.16,3.44,1.65,3.54,3.93Z"/>
    <path class="cls-2" d="M168.15,431.12c-1.89-.48-3.31-1.56-3.18-3.55.13-1.91,1.47-3.28,3.45-3.15,1.91.12,3.28,1.46,3.16,3.45-.12,1.93-1.49,3.01-3.43,3.25Z"/>
    <path class="cls-2" d="M304.67,40.28c2.28.36,3.61,1.64,3.4,3.97-.21,2.33-1.76,3.51-4.05,3.25-1.99-.22-3.18-1.54-3.13-3.6.06-2.36,1.47-3.49,3.77-3.62Z"/>
    <path class="cls-2" d="M253.85,422.88c2.29.38,3.55,1.75,3.3,4.06-.26,2.33-1.84,3.47-4.14,3.16-2.01-.27-3.15-1.62-3.05-3.68.12-2.37,1.56-3.46,3.89-3.53Z"/>
    <path class="cls-2" d="M444.1,238.32c-.52,1.95-1.66,3.41-3.69,3.15-1.9-.24-3.28-1.66-2.96-3.72.25-1.64,1.51-2.93,3.28-2.84,2.01.09,3.1,1.46,3.37,3.42Z"/>
    <path class="cls-2" d="M151.89,428.61c-1.78-.11-3.06-1.11-3.34-2.77-.35-2.08,1-3.42,2.93-3.68,1.78-.23,3.07,1.04,3.35,2.69.36,2.08-1.04,3.19-2.94,3.76Z"/>
    <path class="cls-2" d="M424.1,230.89c2.27.09,3.68,1.21,3.75,3.55.08,2.62-1.34,4.01-3.95,3.91-2.33-.09-3.52-1.49-3.48-3.8.04-2.34,1.36-3.51,3.68-3.66Z"/>
    <path class="cls-2" d="M36.89,233.78c-.37,2.2-1.66,3.45-3.94,3.28-2.29-.18-3.48-1.62-3.32-3.89.17-2.29,1.62-3.48,3.88-3.32,2.3.16,3.34,1.64,3.37,3.93Z"/>
    <path class="cls-2" d="M240.69,423.06c-.19,2.38-1.45,3.65-3.81,3.59-2.38-.06-3.62-1.42-3.56-3.77.06-2.37,1.42-3.61,3.77-3.56,2.39.05,3.52,1.44,3.6,3.75Z"/>
    <path class="cls-2" d="M16.68,234.21c-1.76-.23-2.96-1.23-3.09-2.96-.14-1.79,1.09-3.06,2.76-3.21,2.03-.18,3.39,1.14,3.36,3.17-.02,1.73-1.28,2.73-3.03,3Z"/>
    <path class="cls-2" d="M323.39,424.98c-1.9-.37-3.23-1.48-3.05-3.49.15-1.65,1.4-2.89,3.13-2.81,1.96.09,3.26,1.42,3.09,3.42-.14,1.66-1.39,2.66-3.16,2.88Z"/>
    <path class="cls-2" d="M320.75,49.84c-2.05-.55-3.48-1.79-3.1-4.08.31-1.88,1.68-3.17,3.69-2.93,2.2.26,3.53,1.74,3.18,4.01-.3,1.89-1.68,2.96-3.77,3Z"/>
    <path class="cls-2" d="M225.35,420.92c-.27,2.3-1.59,3.53-3.91,3.43-2.7-.11-3.85-1.78-3.57-4.32.26-2.37,1.89-3.36,4.14-3.16,2.36.21,3.36,1.74,3.34,4.04Z"/>
    <path class="cls-2" d="M310.42,418.42c-.45,2.12-1.69,3.55-3.96,3.28-1.89-.23-3.21-1.57-3.06-3.58.17-2.23,1.63-3.59,3.88-3.33,1.9.21,3,1.58,3.14,3.64Z"/>
    <path class="cls-2" d="M415.99,301.05c-.19,2.38-1.45,3.65-3.81,3.59-2.38-.06-3.62-1.42-3.56-3.77.06-2.37,1.42-3.61,3.77-3.56,2.39.05,3.52,1.44,3.6,3.75Z"/>
    <path class="cls-2" d="M204.99,413.19c2.84.3,4.04,1.86,3.8,4.37-.22,2.29-1.73,3.44-4,3.31-2.65-.15-3.81-1.81-3.59-4.31.21-2.31,1.77-3.3,3.79-3.37Z"/>
    <path class="cls-2" d="M41.43,303.23c-.25,1.97-1.34,3.36-3.32,3.46-2.02.1-3.38-1.26-3.48-3.22-.11-2.02,1.25-3.37,3.22-3.49,2.03-.12,3.12,1.3,3.58,3.24Z"/>
    <path class="cls-2" d="M225.22,29.89c-.37,2.26-1.64,3.6-3.96,3.39-2.32-.21-3.5-1.76-3.24-4.03.22-1.98,1.54-3.17,3.59-3.12,2.34.06,3.47,1.47,3.61,3.76Z"/>
    <path class="cls-2" d="M446.35,221.7c-.44,1.93-1.58,3.32-3.62,3.09-1.65-.19-2.95-1.47-2.83-3.25.14-1.99,1.52-3.33,3.55-3.1,1.66.18,2.71,1.47,2.9,3.26Z"/>
    <path class="cls-2" d="M432.22,303.13c-.34,2.06-1.41,3.41-3.39,3.45-1.73.03-2.98-1.24-3.17-2.86-.25-2,1.09-3.4,2.99-3.6,2.02-.21,3.03,1.3,3.58,3.01Z"/>
    <path class="cls-2" d="M58.29,306.03c-.27,2.26-1.57,3.48-3.87,3.38-2.67-.11-3.81-1.76-3.53-4.27.26-2.34,1.87-3.33,4.1-3.13,2.33.21,3.33,1.72,3.31,4.02Z"/>
    <path class="cls-2" d="M430.19,217.73c0,2.34-1.03,3.82-3.4,3.97-2.31.15-3.78-1-3.93-3.36-.15-2.3,1-3.77,3.36-3.93,2.31-.16,3.67,1.02,3.97,3.32Z"/>
    <path class="cls-2" d="M35.28,214.36c2.34,0,3.84,1.04,3.99,3.41.15,2.31-1.01,3.79-3.37,3.94-2.31.15-3.78-1-3.94-3.37-.16-2.33,1.04-3.67,3.33-3.99Z"/>
    <path class="cls-2" d="M290.35,412.15c2.36.21,3.66,1.45,3.6,3.81-.06,2.36-1.42,3.63-3.77,3.58-2.37-.05-3.63-1.41-3.58-3.77.04-2.38,1.45-3.52,3.75-3.63Z"/>
    <path class="cls-2" d="M133.84,50.96c-1.92-.38-3.33-1.46-3.3-3.42.03-2.23,1.51-3.66,3.75-3.42,1.86.2,3.2,1.59,3.02,3.6-.17,1.93-1.52,3.01-3.47,3.24Z"/>
    <path class="cls-2" d="M188.28,410.87c2.45.06,3.93,1.28,3.91,3.89-.01,2.28-1.26,3.63-3.56,3.71-2.56.09-4.01-1.25-4-3.85,0-2.29,1.28-3.53,3.65-3.75Z"/>
    <path class="cls-2" d="M19.21,217.69c-1.73-.1-2.98-1.06-3.25-2.7-.33-2.03.96-3.35,2.86-3.59,1.74-.22,3,.99,3.28,2.62.34,2.03-.99,3.14-2.89,3.67Z"/>
    <path class="cls-2" d="M277.68,412.08c-.23,2.73-1.55,4.22-4.1,4.14-2.56-.08-3.9-1.65-3.78-4.17.1-2.26,1.48-3.57,3.74-3.64,2.58-.08,3.84,1.43,4.14,3.68Z"/>
    <path class="cls-2" d="M171.88,407.34c2.4.17,3.71,1.42,3.7,3.76-.01,2.69-1.58,3.96-4.16,3.77-2.36-.17-3.47-1.7-3.35-4.01.13-2.37,1.57-3.46,3.81-3.53Z"/>
    <path class="cls-2" d="M367.41,75.81c-1.98-.24-3.38-1.32-3.49-3.3-.11-2.02,1.25-3.38,3.2-3.5,2.02-.12,3.37,1.24,3.5,3.2.13,2.04-1.29,3.12-3.22,3.6Z"/>
    <path class="cls-2" d="M433.66,201.2c-.09,2.3-1.2,3.75-3.51,3.81-2.3.06-3.62-1.29-3.65-3.58-.02-2.02,1.19-3.31,3.16-3.49,2.28-.22,3.59,1.05,3.99,3.27Z"/>
    <path class="cls-2" d="M309.95,27.44c-.3,1.73-1.3,2.95-3.04,2.92-2.02-.03-3.28-1.39-3.05-3.4.19-1.66,1.47-2.82,3.25-2.64,1.71.17,2.68,1.37,2.84,3.13Z"/>
    <path class="cls-2" d="M41.7,201.2c0,2.3-1.05,3.76-3.35,3.96-2.23.19-3.81-.87-4.04-3.16-.26-2.5.93-4.12,3.57-4.21,2.29-.08,3.55,1.18,3.82,3.41Z"/>
    <path class="cls-2" d="M341.09,49.54c-.28,2.14-1.37,3.51-3.3,3.62-1.98.1-3.32-1.26-3.43-3.17-.11-1.98,1.26-3.31,3.17-3.44,2.02-.14,2.97,1.4,3.56,2.99Z"/>
    <path class="cls-2" d="M25.85,197.76c-.13,1.77-1.15,3.06-2.81,3.31-2.06.31-3.42-1.03-3.64-2.98-.21-1.79,1.09-3.07,2.73-3.32,2.06-.32,3.19,1.07,3.72,3Z"/>
    <path class="cls-2" d="M155.2,405.03c2.25.11,3.63,1.23,3.73,3.54.1,2.27-1.05,3.73-3.35,3.88-2.55.16-4.04-1.15-4.03-3.77.02-2.31,1.37-3.47,3.64-3.64Z"/>
    <path class="cls-2" d="M408.49,313.85c2.62.28,3.93,1.49,3.86,3.81-.07,2.3-1.42,3.57-3.72,3.51-2.3-.06-3.55-1.41-3.51-3.72.04-2.36,1.54-3.34,3.37-3.6Z"/>
    <path class="cls-2" d="M342.44,404.24c1.91.44,3.37,1.52,3.2,3.53-.16,1.91-1.56,3.27-3.57,3.06-1.64-.17-2.91-1.41-2.92-3.15-.01-2.01,1.37-3.07,3.29-3.44Z"/>
    <path class="cls-2" d="M208.57,25.75c-.25,2.31-1.33,3.74-3.31,3.85-2.3.13-3.77-1.31-3.7-3.62.06-1.99,1.44-3.27,3.48-3.28,2.1-.01,2.98,1.53,3.54,3.05Z"/>
    <path class="cls-2" d="M150.19,54.76c-2.21-.28-3.46-1.55-3.37-3.84.11-2.64,1.73-3.82,4.23-3.55,2.3.25,3.34,1.84,3.14,4.06-.21,2.3-1.68,3.33-4,3.32Z"/>
    <path class="cls-2" d="M425.31,323.11c-1.93-.49-3.21-1.52-3.06-3.29.16-1.97,1.5-3.28,3.59-2.92,1.7.3,2.82,1.63,2.55,3.4-.25,1.7-1.58,2.6-3.08,2.8Z"/>
    <path class="cls-2" d="M54.56,322.51c-.46,2.13-1.72,3.54-4,3.25-1.9-.24-3.21-1.59-3.04-3.62.19-2.25,1.67-3.58,3.93-3.31,1.91.23,3,1.61,3.11,3.68Z"/>
    <path class="cls-2" d="M293.47,23.99c-.54,1.89-1.65,3.22-3.68,2.87-1.64-.28-2.84-1.55-2.61-3.29.25-1.9,1.58-3.19,3.61-2.85,1.64.28,2.59,1.54,2.69,3.27Z"/>
    <path class="cls-2" d="M322.18,404.93c.41-2.25,1.75-3.54,4.04-3.28,2.29.26,3.46,1.83,3.14,4.11-.28,1.98-1.61,3.14-3.66,3.03-2.34-.12-3.43-1.56-3.52-3.86Z"/>
    <path class="cls-2" d="M191.75,23.78c-.39,1.92-1.46,3.31-3.47,3.27-1.72-.03-2.97-1.3-3.12-2.95-.18-2.01,1.16-3.4,3.09-3.54,2.01-.14,3.08,1.31,3.5,3.22Z"/>
    <path class="cls-2" d="M67.61,320.8c2.47.15,3.89,1.48,3.8,4.08-.08,2.3-1.44,3.6-3.74,3.61-2.61.01-3.98-1.45-3.9-4.03.07-2.31,1.46-3.49,3.85-3.66Z"/>
    <path class="cls-2" d="M278.12,21.27c-.13,1.76-1.14,3.03-2.79,3.28-2.04.31-3.39-1.02-3.61-2.96-.2-1.78,1.07-3.04,2.71-3.3,2.05-.32,3.17,1.06,3.7,2.98Z"/>
    <path class="cls-2" d="M432.59,188.37c-2-.16-3.34-1.26-3.57-3.17-.25-2.02,1.08-3.43,2.95-3.68,2.26-.3,3.74,1.12,3.84,3.35.09,1.99-1.32,3.08-3.22,3.51Z"/>
    <path class="cls-2" d="M95,78.2c-1.98-.17-3.32-1.27-3.55-3.16-.25-2.01,1.09-3.42,2.94-3.66,2.24-.3,3.73,1.12,3.83,3.33.09,1.98-1.32,3.06-3.21,3.49Z"/>
    <path class="cls-2" d="M41.81,188.61c-2.7-.22-3.99-1.46-3.93-3.81.06-2.35,1.41-3.61,3.74-3.56,2.35.05,3.59,1.4,3.56,3.74-.02,2.41-1.51,3.41-3.38,3.63Z"/>
    <path class="cls-2" d="M261.56,18.81c-.09,1.77-1.05,3.06-2.72,3.37-2.1.4-3.43-.96-3.72-2.86-.27-1.77.98-3.07,2.64-3.39,2.1-.41,3.2,1.01,3.81,2.88Z"/>
    <path class="cls-2" d="M138.57,401.56c2.29.18,3.68,1.34,3.69,3.7,0,2.05-1.19,3.36-3.2,3.53-2.29.2-3.81-.99-3.97-3.33-.16-2.34,1.19-3.59,3.49-3.9Z"/>
    <path class="cls-2" d="M354.24,55.39c-1.93-.48-3.19-1.51-3.04-3.27.16-1.96,1.49-3.26,3.57-2.9,1.69.3,2.8,1.63,2.54,3.39-.25,1.7-1.57,2.59-3.07,2.78Z"/>
    <path class="cls-2" d="M419.69,182.4c-.07,2.46-1.32,3.95-3.93,3.93-2.29-.02-3.65-1.3-3.73-3.6-.08-2.58,1.28-4.03,3.89-4.02,2.29.01,3.55,1.3,3.77,3.69Z"/>
    <path class="cls-2" d="M389.92,326.63c2.63.31,3.96,1.81,3.76,4.31-.2,2.57-1.93,3.79-4.4,3.54-2.22-.22-3.48-1.7-3.41-3.96.08-2.57,1.61-3.79,4.05-3.89Z"/>
    <path class="cls-2" d="M24.84,184.57c-1.93-.46-3.3-1.61-3.03-3.64.21-1.63,1.49-2.92,3.26-2.77,1.97.17,3.29,1.55,3.04,3.56-.21,1.64-1.48,2.68-3.26,2.84Z"/>
    <path class="cls-2" d="M244.88,15.32c-.08,1.76-1.1,3-2.78,3.27-1.78.28-3.12-.86-3.42-2.56-.37-2.1.95-3.45,2.93-3.61,1.78-.15,2.82,1.14,3.26,2.91Z"/>
    <path class="cls-2" d="M171.09,53.4c-.22,2.52-1.55,4.03-4.12,3.95-2.57-.08-3.93-1.67-3.81-4.21.11-2.27,1.51-3.61,3.77-3.67,2.57-.07,3.92,1.39,4.16,3.93Z"/>
    <path class="cls-2" d="M122.05,406.33c-1.94-.34-3.36-1.41-3.37-3.38-.01-2.25,1.46-3.69,3.71-3.49,1.89.16,3.22,1.54,3.08,3.56-.13,1.97-1.49,3.03-3.43,3.31Z"/>
    <path class="cls-2" d="M313.12,401.73c-.22,2.63-1.7,3.94-4.25,3.76-2.3-.16-3.54-1.62-3.47-3.91.08-2.64,1.66-3.92,4.21-3.75,2.31.15,3.42,1.63,3.51,3.9Z"/>
    <path class="cls-2" d="M409.91,333.96c-.12,2.01-1.22,3.39-3.1,3.62-2.24.28-3.77-1.08-3.89-3.29-.12-2.23,1.32-3.64,3.57-3.62,1.97.02,3.03,1.4,3.41,3.28Z"/>
    <path class="cls-2" d="M108.68,400.67c-.54,1.89-1.65,3.22-3.68,2.87-1.64-.28-2.84-1.55-2.61-3.29.25-1.9,1.58-3.19,3.61-2.85,1.64.28,2.59,1.54,2.69,3.27Z"/>
    <path class="cls-2" d="M115.17,78.29c-.13,2.32-1.3,3.68-3.64,3.71-2.64.03-3.97-1.45-3.82-4.04.13-2.34,1.59-3.48,3.89-3.39,2.34.09,3.47,1.46,3.58,3.73Z"/>
    <path class="cls-2" d="M364.69,394.37c-.22,1.94-1.3,3.29-3.27,3.43-1.75.12-2.99-1.14-3.28-2.76-.37-2.05,1-3.45,2.85-3.73,2-.3,3.14,1.15,3.7,3.06Z"/>
    <path class="cls-2" d="M75.92,85.58c1.93.44,3.39,1.53,3.22,3.55-.16,1.93-1.56,3.29-3.59,3.07-1.65-.17-2.93-1.42-2.94-3.16-.01-2.03,1.38-3.09,3.31-3.46Z"/>
    <path class="cls-2" d="M51.82,338.98c-.44,1.92-1.58,3.24-3.58,2.99-1.62-.21-2.87-1.46-2.72-3.21.16-1.95,1.52-3.24,3.51-2.99,1.62.2,2.64,1.45,2.79,3.2Z"/>
    <path class="cls-2" d="M439.22,169.51c-.59,2.06-1.7,3.4-3.73,3.04-1.64-.28-2.84-1.55-2.61-3.29.25-1.9,1.58-3.18,3.61-2.85,1.68.27,2.5,1.62,2.74,3.09Z"/>
    <path class="cls-2" d="M365.17,92.68c-2.3,0-3.8-1.02-3.96-3.35-.17-2.55,1.1-4.09,3.75-4.08,2.31,0,3.6,1.29,3.65,3.61.05,2.31-1.17,3.58-3.44,3.83Z"/>
    <path class="cls-2" d="M43.98,171.99c-2.28-.12-3.67-1.25-3.72-3.59-.05-2.32,1.21-3.67,3.55-3.73,2.32-.05,3.67,1.21,3.73,3.55.06,2.33-1.24,3.56-3.56,3.77Z"/>
    <path class="cls-2" d="M68.82,340.96c-.1,2.28-1.2,3.74-3.49,3.81-2.28.07-3.61-1.28-3.65-3.56-.03-2.02,1.19-3.3,3.14-3.5,2.27-.23,3.57,1.06,4,3.25Z"/>
    <path class="cls-2" d="M423.06,166.01c-.24,2.29-1.45,3.6-3.76,3.54-2.3-.06-3.58-1.41-3.52-3.7.05-2.3,1.4-3.57,3.7-3.52,2.33.05,3.44,1.44,3.58,3.69Z"/>
    <path class="cls-2" d="M27.34,167.87c-1.76-.23-2.96-1.23-3.09-2.96-.14-1.79,1.09-3.06,2.76-3.21,2.03-.18,3.39,1.14,3.36,3.17-.02,1.73-1.28,2.73-3.03,3Z"/>
    <path class="cls-2" d="M92.38,87.59c2.31.1,3.71,1.24,3.76,3.62.05,2.35-1.2,3.72-3.57,3.78-2.35.06-3.71-1.2-3.78-3.57-.07-2.36,1.24-3.61,3.59-3.83Z"/>
    <path class="cls-2" d="M85.71,344.56c-.24,2.92-1.71,4.25-4.27,4.07-2.3-.15-3.55-1.61-3.48-3.9.07-2.63,1.64-3.92,4.2-3.77,2.34.14,3.36,1.68,3.55,3.6Z"/>
    <path class="cls-2" d="M344.51,387.29c2.63.26,3.95,1.48,3.88,3.8-.06,2.32-1.4,3.59-3.72,3.53-2.32-.05-3.56-1.4-3.54-3.71.03-2.37,1.53-3.37,3.37-3.62Z"/>
    <path class="cls-2" d="M381.66,94.87c-2.18-.22-3.65-1.36-3.64-3.64,0-1.97,1.31-3.31,3.26-3.39,2.26-.09,3.67,1.29,3.68,3.55,0,1.99-1.35,3.07-3.3,3.48Z"/>
    <path class="cls-2" d="M328.12,384.59c2.47.17,4.02,1.47,4.04,4.05.02,2.28-1.31,3.77-3.56,3.95-2.52.21-4.23-1.11-4.39-3.7-.16-2.56,1.29-4,3.91-4.31Z"/>
    <path class="cls-2" d="M391.17,346.89c-.22,2.64-1.41,3.97-3.71,3.97-2.62,0-3.91-1.53-3.73-4.07.16-2.29,1.64-3.42,3.91-3.32,2.35.11,3.32,1.6,3.53,3.41Z"/>
    <path class="cls-2" d="M398.19,90.55c1.78.39,3.04,1.42,2.94,3.17-.11,1.99-1.46,3.29-3.52,2.98-1.68-.25-2.83-1.57-2.59-3.35.23-1.68,1.46-2.68,3.17-2.8Z"/>
    <path class="cls-2" d="M124.22,390.1c-2.29-.22-3.58-1.48-3.59-3.77,0-2.6,1.46-3.99,4.03-3.87,2.64.12,3.81,1.82,3.57,4.31-.22,2.29-1.75,3.33-4.02,3.33Z"/>
    <path class="cls-2" d="M72.11,109.11c-2.2-.41-3.56-1.72-3.28-4.03.24-1.96,1.6-3.22,3.66-3.06,2.32.18,3.6,1.67,3.34,3.97-.23,1.97-1.61,3.05-3.72,3.13Z"/>
    <path class="cls-2" d="M407.29,350.6c-.24,1.9-1.32,3.23-3.27,3.33-1.73.09-2.96-1.16-3.22-2.76-.32-2.01,1.02-3.4,2.87-3.65,1.98-.26,3.1,1.16,3.61,3.07Z"/>
    <path class="cls-2" d="M51.15,151.7c-.46,2.56-1.81,3.85-4.1,3.59-2.29-.26-3.46-1.83-3.14-4.11.28-1.98,1.61-3.12,3.66-3.03,2.38.1,3.33,1.66,3.58,3.56Z"/>
    <path class="cls-2" d="M425.24,149.48c-.42,1.91-1.5,3.31-3.47,3.25-2.22-.07-3.65-1.57-3.37-3.8.23-1.84,1.63-3.19,3.64-2.97,1.91.21,3,1.55,3.19,3.52Z"/>
    <path class="cls-2" d="M108.2,387.54c-2.31-.02-3.78-1.07-3.94-3.37-.16-2.27,1.04-3.72,3.32-3.88,2.26-.16,3.71,1.03,3.88,3.32.17,2.28-1.08,3.57-3.27,3.93Z"/>
    <path class="cls-2" d="M92.91,107.87c-.21,2.51-1.53,4.03-4.1,3.96-2.57-.07-3.94-1.65-3.84-4.19.1-2.26,1.48-3.62,3.75-3.69,2.56-.08,3.93,1.36,4.18,3.92Z"/>
    <path class="cls-2" d="M377.81,104.05c2.45.07,3.95,1.3,3.93,3.92-.01,2.29-1.28,3.66-3.59,3.74-2.58.09-4.04-1.27-4.03-3.87,0-2.29,1.3-3.55,3.69-3.78Z"/>
    <path class="cls-2" d="M384.67,380.28c-.22,1.77-1.23,3.02-2.88,3.16-2,.17-3.32-1.13-3.41-3.09-.08-1.73,1.16-2.97,2.81-3.12,2.01-.18,3.11,1.16,3.48,3.05Z"/>
    <path class="cls-2" d="M408.96,146.95c-.09,2.29-1.22,3.7-3.58,3.77-2.64.08-4.04-1.35-3.94-3.98.09-2.35,1.5-3.55,3.83-3.51,2.35.04,3.54,1.37,3.69,3.71Z"/>
    <path class="cls-2" d="M96,380.07c-.39,2.23-1.46,3.65-3.43,3.66-2.25.01-3.69-1.46-3.49-3.71.16-1.89,1.54-3.19,3.56-3.09,2.03.1,2.88,1.63,3.36,3.15Z"/>
    <path class="cls-2" d="M64.85,358.07c-.58,1.86-1.67,3.2-3.72,2.81-1.65-.31-2.82-1.59-2.57-3.31.28-1.88,1.59-3.17,3.64-2.79,1.65.31,2.57,1.57,2.65,3.3Z"/>
    <path class="cls-2" d="M70.31,137.54c-.17,2.49-1.52,3.93-4.13,3.83-2.31-.09-3.63-1.48-3.63-3.79,0-2.62,1.49-4.01,4.08-3.92,2.33.08,3.5,1.5,3.68,3.88Z"/>
    <path class="cls-2" d="M53.42,135.07c-.51,2.2-1.62,3.62-3.65,3.51-2.27-.12-3.69-1.63-3.36-3.93.27-1.91,1.7-3.21,3.76-2.97,2.01.23,2.92,1.73,3.25,3.39Z"/>
    <path class="cls-2" d="M81.83,361.35c-.29,2.19-1.47,3.63-3.79,3.52-1.99-.1-3.28-1.41-3.28-3.42,0-2.29,1.41-3.65,3.71-3.57,2.01.08,3.06,1.45,3.36,3.46Z"/>
    <path class="cls-2" d="M367.33,357.52c2.63.22,3.93,1.69,3.76,4.24-.16,2.3-1.61,3.52-3.9,3.46-2.63-.08-3.9-1.65-3.74-4.19.15-2.31,1.63-3.41,3.88-3.5Z"/>
    <path class="cls-2" d="M394.17,113.84c-2.15-.48-3.48-1.8-3.13-4.12.3-1.97,1.69-3.18,3.74-2.96,2.3.24,3.55,1.76,3.22,4.06-.29,1.98-1.69,3-3.83,3.02Z"/>
    <path class="cls-2" d="M94.95,367.53c-2.26-.05-3.74-1.12-3.86-3.48-.13-2.61,1.22-4.09,3.88-4.04,2.35.04,3.6,1.4,3.6,3.73,0,2.34-1.26,3.59-3.63,3.78Z"/>
    <path class="cls-2" d="M114.05,65.23c-2.07-.1-3.5-1.22-3.7-3.15-.23-2.3,1.2-3.8,3.49-3.82,2-.02,3.32,1.34,3.4,3.35.08,2.06-1.3,3.14-3.19,3.62Z"/>
    <path class="cls-2" d="M387.43,363.72c-.31,2.17-1.48,3.62-3.78,3.51-1.97-.1-3.27-1.42-3.26-3.41,0-2.27,1.41-3.64,3.69-3.55,1.99.08,3.04,1.45,3.35,3.45Z"/>
    <path class="cls-2" d="M364.72,381.6c-2.24-.37-3.59-1.64-3.37-3.95.21-2.3,1.75-3.49,4.02-3.23,1.96.22,3.16,1.54,3.1,3.58-.07,2.33-1.47,3.45-3.75,3.6Z"/>
    <path class="cls-2" d="M408.45,126.79c2.46.39,3.91,1.57,3.76,3.87-.13,1.96-1.45,3.25-3.45,3.22-2.27-.04-3.61-1.46-3.51-3.74.09-2.04,1.61-2.91,3.2-3.35Z"/>
    <path class="cls-2" d="M392.15,122.98c2.84.3,4.04,1.86,3.8,4.37-.22,2.29-1.73,3.44-4,3.31-2.65-.15-3.81-1.81-3.59-4.31.21-2.31,1.77-3.3,3.79-3.37Z"/>
    <path class="cls-2" d="M350.97,72.44c-2.32-.09-3.79-1.2-3.85-3.53-.06-2.32,1.29-3.66,3.61-3.68,2.04-.02,3.34,1.19,3.53,3.19.22,2.3-1.05,3.63-3.29,4.03Z"/>
    <path class="cls-2" d="M317.76,66.92c-2.73-.24-4.26-1.56-4.19-4.14.07-2.57,1.66-3.96,4.21-3.85,2.27.1,3.63,1.5,3.71,3.77.09,2.59-1.44,3.89-3.73,4.22Z"/>
    <path class="cls-2" d="M134.1,63.94c-.05,2.24-1.1,3.7-3.43,3.81-2.57.13-4.03-1.2-3.98-3.82.04-2.31,1.38-3.55,3.68-3.55,2.31,0,3.54,1.24,3.73,3.57Z"/>
    <path class="cls-2" d="M69.88,117.22c2.3.08,3.7,1.21,3.75,3.6.05,2.35-1.18,3.72-3.56,3.77-2.35.05-3.71-1.18-3.77-3.56-.06-2.36,1.21-3.62,3.59-3.81Z"/>
    <path class="cls-2" d="M334.02,62.66c2.25.05,3.72,1.14,3.83,3.49.12,2.61-1.24,4.08-3.89,4.03-2.35-.05-3.59-1.41-3.59-3.74,0-2.34,1.27-3.59,3.65-3.77Z"/>
    <path class="cls-2" d="M53.47,115.21c1.93.49,3.37,1.6,3.15,3.61-.21,1.89-1.63,3.25-3.65,2.97-1.62-.22-2.9-1.47-2.85-3.22.06-1.99,1.42-3.06,3.34-3.36Z"/>
    <path class="cls-2" d="M411.18,110.64c1.92.41,3.24,1.54,3.02,3.54-.18,1.63-1.43,2.88-3.17,2.76-1.96-.13-3.24-1.48-3.03-3.47.17-1.64,1.43-2.65,3.18-2.83Z"/>
    <path class="cls-2" d="M352.36,374.43c-.28,2.59-1.69,4.08-4.25,3.95-2.58-.13-3.93-1.8-3.76-4.33.15-2.26,1.62-3.61,3.89-3.62,2.58-.01,3.9,1.51,4.12,4Z"/>
    <path class="cls-2" d="M59.08,377c-1.66-.11-2.4-1.05-2.37-2.66.03-1.64.87-2.48,2.51-2.51,2-.03,2.77,1.11,2.64,2.95-.13,1.67-1.22,2.28-2.78,2.22Z"/>
    <path class="cls-2" d="M34.45,317.05c2.06.22,2.95,1.39,2.81,3.2-.12,1.56-1.14,2.5-2.72,2.52-1.87.02-2.97-1.01-2.95-2.88.02-1.88,1.17-2.79,2.87-2.84Z"/>
    <path class="cls-2" d="M400.54,370.09c-1.8-.01-2.89-.91-2.89-2.79,0-1.87,1.09-2.83,2.94-2.78,1.58.04,2.56.94,2.63,2.51.07,1.75-.62,3.04-2.68,3.06Z"/>
    <path class="cls-2" d="M78.92,378.08c-.35,1.87-1.41,3-3.23,2.86-1.8-.14-2.92-1.35-2.78-3.17.14-1.8,1.35-2.92,3.18-2.78,1.8.13,2.74,1.36,2.84,3.1Z"/>
    <path class="cls-2" d="M33.32,128.86c1.58-.01,2.65.85,2.63,2.8-.01,1.63-.86,2.56-2.49,2.64-1.89.09-2.95-.83-2.94-2.78.01-1.62.85-2.53,2.8-2.66Z"/>
    <path class="cls-2" d="M428.3,132.87c-.3,1.9-1.37,2.96-3.18,2.83-1.81-.12-2.87-1.32-2.74-3.13.13-1.81,1.32-2.87,3.14-2.74,1.81.12,2.72,1.32,2.79,3.04Z"/>
    <path class="cls-2" d="M215.84,451.2c1.66.09,2.41,1,2.4,2.62-.01,1.64-.84,2.5-2.48,2.54-1.99.05-2.8-1.06-2.67-2.91.11-1.67,1.18-2.31,2.75-2.25Z"/>
    <path class="cls-2" d="M30.77,151.15c-1.51-.07-2.72-.97-2.84-2.78-.12-1.82.93-3.01,2.74-3.14,1.82-.13,3.02.94,3.13,2.74.12,1.8-.9,2.91-3.04,3.18Z"/>
    <path class="cls-2" d="M45.16,352.88c1.65.02,2.48.87,2.51,2.51.03,1.62-.72,2.57-2.37,2.64-1.92.09-2.88-.87-2.79-2.8.08-1.65,1.03-2.4,2.65-2.36Z"/>
    <path class="cls-2" d="M94.39,58.18c.01-1.63.84-2.78,2.73-2.82,1.86-.04,2.87.99,2.87,2.85,0,1.57-.87,2.58-2.42,2.72-1.77.15-2.98-.64-3.18-2.75Z"/>
    <path class="cls-2" d="M419.24,350.51c1.58-.05,2.62.61,2.73,2.28.12,1.87-.72,2.94-2.7,2.88-1.64-.05-2.45-.93-2.46-2.56,0-1.62.77-2.52,2.43-2.6Z"/>
    <path class="cls-2" d="M199.22,452.9c-2.07-.16-2.83-1.13-2.79-2.76.04-1.67.92-2.54,2.59-2.55,2.04-.02,2.83,1.16,2.69,3.03-.13,1.72-1.3,2.28-2.48,2.29Z"/>
    <path class="cls-2" d="M400.6,383.94c-.04,1.66-.9,2.5-2.57,2.48-1.67-.03-2.51-.9-2.48-2.57.03-1.67.91-2.51,2.57-2.48,1.66.03,2.52.88,2.48,2.58Z"/>
    <path class="cls-2" d="M55.71,104.85c-1.87-.16-2.88-1.19-2.81-3.05.06-1.58,1.02-2.57,2.59-2.66,1.84-.11,3.03.84,3.1,2.73.06,1.86-1.01,2.86-2.87,2.98Z"/>
    <path class="cls-2" d="M441.06,153.03c.01,1.53-.84,2.59-2.78,2.58-1.62-.01-2.55-.85-2.62-2.48-.08-1.88.83-2.93,2.76-2.92,1.61.01,2.52.84,2.64,2.82Z"/>
    <path class="cls-2" d="M417.24,96.89c-.04,2.09-.89,2.9-2.53,2.93-1.62.02-2.56-.74-2.63-2.38-.09-1.93.9-2.88,2.81-2.77,1.64.09,2.41,1.03,2.35,2.23Z"/>
    <path class="cls-2" d="M284.5,451.57c-1.65.05-2.59-.72-2.67-2.39-.08-1.65.71-2.59,2.38-2.67,1.65-.08,2.59.71,2.67,2.38.08,1.65-.71,2.56-2.38,2.67Z"/>
    <path class="cls-2" d="M182.67,445.25c1.67.09,2.43,1.01,2.42,2.64-.01,1.65-.85,2.52-2.5,2.56-2,.05-2.82-1.07-2.69-2.93.12-1.67,1.19-2.33,2.77-2.27Z"/>
    <path class="cls-2" d="M373.52,55.71c0,1.93-1.03,2.83-2.91,2.75-1.63-.07-2.46-1-2.47-2.62-.02-1.94,1.03-2.84,2.91-2.75,1.62.07,2.45.98,2.47,2.62Z"/>
    <path class="cls-2" d="M192.05,4.63c1.65.03,2.47.89,2.49,2.52.02,1.62-.74,2.56-2.38,2.63-1.93.09-2.87-.9-2.77-2.81.09-1.65,1.05-2.39,2.66-2.34Z"/>
    <path class="cls-2" d="M270.5,445.42c-.02,1.94-1.05,2.86-2.94,2.78-1.63-.07-2.49-1.02-2.5-2.64-.01-1.94,1.05-2.87,2.94-2.78,1.62.08,2.47,1,2.5,2.65Z"/>
    <path class="cls-2" d="M211.24,9.47c-.12,1.96-1.02,2.77-2.62,2.79-1.93.02-2.82-1.03-2.74-2.9.07-1.62,1-2.44,2.6-2.46,1.93-.02,2.78,1.04,2.76,2.57Z"/>
    <path class="cls-2" d="M168.49,444.48c-.09,1.66-1,2.41-2.62,2.4-1.64-.01-2.5-.84-2.54-2.48-.05-1.99,1.06-2.8,2.91-2.67,1.67.11,2.31,1.18,2.25,2.75Z"/>
    <path class="cls-2" d="M453.91,172c-.11,1.67-1.03,2.46-2.67,2.38-1.68-.08-2.46-1.02-2.38-2.67.08-1.67,1.02-2.46,2.67-2.38,1.67.08,2.44,1.02,2.39,2.67Z"/>
    <path class="cls-2" d="M451.63,276.33c-1.55.04-2.69-.51-2.83-2.21-.15-1.84.6-3.01,2.62-3,1.65,0,2.51.85,2.56,2.5.05,1.62-.69,2.57-2.35,2.71Z"/>
    <path class="cls-2" d="M91.63,396.82c-.13,1.95-1.03,2.78-2.64,2.79-1.94.02-2.84-1.04-2.76-2.92.07-1.63,1.01-2.46,2.62-2.48,1.94-.02,2.8,1.05,2.78,2.6Z"/>
    <path class="cls-2" d="M59.32,87.99c-1.64.02-2.55-.78-2.61-2.44-.07-1.97.97-2.86,2.87-2.75,1.67.1,2.38,1.11,2.33,2.72-.06,1.65-.93,2.48-2.58,2.47Z"/>
    <path class="cls-2" d="M378.06,399.56c-1.63.04-2.66-.68-2.76-2.37-.11-1.92.81-2.99,2.8-2.92,1.68.06,2.49,1,2.48,2.66,0,1.66-.83,2.56-2.52,2.63Z"/>
    <path class="cls-2" d="M402.98,78.05c.06,1.61-.62,2.64-2.31,2.75-1.62.11-2.63-.61-2.75-2.3-.11-1.62.61-2.63,2.3-2.75,1.61-.11,2.6.61,2.76,2.3Z"/>
    <path class="cls-2" d="M422.88,339.23c-1.64-.03-2.57-.87-2.65-2.5-.09-1.89.84-2.95,2.78-2.94,1.63,0,2.57.87,2.64,2.5.09,1.89-.84,2.93-2.78,2.94Z"/>
    <path class="cls-2" d="M13.38,264c.04,1.57-.53,2.73-2.25,2.88-1.87.15-3.05-.62-3.05-2.66,0-1.67.87-2.55,2.54-2.6,1.63-.05,2.61.7,2.75,2.39Z"/>
    <path class="cls-2" d="M225.13,10.15c1.81.18,2.94,1.16,2.94,2.98,0,1.82-1.12,2.94-2.94,2.94-1.82,0-2.94-1.13-2.94-2.94,0-1.81,1.13-2.8,2.94-2.98Z"/>
    <path class="cls-2" d="M453.98,259.75c-1.54.06-2.69-.5-2.83-2.21-.15-1.86.61-3.03,2.64-3.02,1.66,0,2.54.86,2.58,2.52.04,1.6-.64,2.63-2.39,2.71Z"/>
    <path class="cls-2" d="M386.86,74.6c-.2,1.93-1.18,3.07-3,3.06-1.82,0-2.94-1.12-2.94-2.94,0-1.82,1.13-2.93,2.94-2.94,1.83-.01,2.78,1.16,3,2.82Z"/>
    <path class="cls-2" d="M153.8,18.3c.04-2.19.92-3.03,2.57-3.06,1.64-.03,2.6.75,2.67,2.42.09,1.96-.92,2.92-2.85,2.82-1.65-.09-2.45-1.04-2.39-2.18Z"/>
    <path class="cls-2" d="M173.15,23.11c-1.84-.07-2.98-1-2.97-2.88,0-1.87,1.13-2.88,2.99-2.84,1.59.04,2.58,1,2.68,2.56.12,1.83-.8,2.96-2.71,3.16Z"/>
    <path class="cls-2" d="M448.94,191.16c-1.64-.03-2.57-.87-2.64-2.5-.09-1.89.83-2.95,2.78-2.94,1.63.01,2.56.86,2.64,2.49.09,1.89-.83,2.93-2.77,2.94Z"/>
    <path class="cls-2" d="M234.77,456.19c-.04,1.67-.91,2.51-2.57,2.48-1.67-.03-2.51-.9-2.48-2.57.03-1.67.91-2.51,2.57-2.48,1.67.03,2.5.9,2.49,2.57Z"/>
    <path class="cls-2" d="M303.28,437.63c-1.88-.11-2.82-1.14-2.76-2.99.05-1.58.96-2.52,2.53-2.61,1.82-.1,2.99.78,3.04,2.68.04,1.83-.93,2.87-2.82,2.92Z"/>
    <path class="cls-2" d="M446.74,208.02c-1.71-.08-2.92-.97-3.04-2.79-.12-1.82.93-3.01,2.74-3.14,1.82-.13,3.01.93,3.14,2.74.13,1.81-.94,2.88-2.84,3.19Z"/>
    <path class="cls-2" d="M340.16,35.91c-1.63.04-2.66-.68-2.76-2.37-.11-1.92.81-2.99,2.8-2.92,1.68.06,2.49,1,2.48,2.66,0,1.66-.83,2.56-2.52,2.63Z"/>
    <path class="cls-2" d="M359.06,408.44c1.63.02,2.54.86,2.61,2.48.08,1.88-.83,2.92-2.76,2.9-1.62-.01-2.54-.86-2.61-2.48-.08-1.88.83-2.9,2.76-2.9Z"/>
    <path class="cls-2" d="M39.4,116.03c-.15,2.05-1.09,2.78-2.7,2.74-1.64-.04-2.47-.89-2.49-2.53-.02-2.01,1.13-2.76,2.96-2.62,1.69.13,2.23,1.27,2.23,2.41Z"/>
    <path class="cls-2" d="M13.04,244.95c1.94.02,2.86,1.05,2.78,2.94-.07,1.63-1.02,2.48-2.64,2.49-1.95.01-2.87-1.06-2.78-2.94.08-1.62,1-2.47,2.65-2.5Z"/>
    <path class="cls-2" d="M105.66,416.01c-.11,1.67-1.03,2.46-2.68,2.38-1.68-.08-2.46-1.02-2.38-2.67.08-1.67,1.02-2.46,2.67-2.38,1.68.08,2.43,1.03,2.39,2.67Z"/>
    <path class="cls-2" d="M447.99,306.67c.06,1.61-.62,2.64-2.31,2.75-1.62.11-2.64-.61-2.75-2.3-.11-1.61.61-2.64,2.3-2.75,1.61-.11,2.6.61,2.76,2.3Z"/>
    <path class="cls-2" d="M80.97,72.29c-.02,1.94-1.05,2.86-2.94,2.78-1.63-.07-2.48-1.02-2.49-2.64-.01-1.95,1.06-2.87,2.94-2.78,1.62.08,2.47,1,2.5,2.65Z"/>
    <path class="cls-2" d="M447.72,292.89c-1.65-.04-2.46-.9-2.48-2.54-.02-1.62.75-2.55,2.4-2.62,1.94-.08,2.86.93,2.76,2.83-.09,1.65-1.07,2.38-2.68,2.33Z"/>
    <path class="cls-2" d="M119.92,416.71c1.65.11,2.49,1.02,2.51,2.64.02,1.95-1.04,2.87-2.93,2.79-1.63-.07-2.49-1-2.5-2.63-.02-1.95,1.04-2.82,2.92-2.8Z"/>
    <path class="cls-2" d="M323.38,27c1.94.02,2.86,1.05,2.78,2.94-.07,1.63-1.02,2.49-2.64,2.5-1.94.01-2.87-1.05-2.78-2.94.08-1.62,1-2.47,2.65-2.5Z"/>
    <path class="cls-2" d="M138.15,421.91c-.36,1.87-1.41,3.01-3.24,2.87-1.79-.14-2.92-1.35-2.78-3.18.14-1.8,1.35-2.92,3.18-2.78,1.81.13,2.74,1.36,2.84,3.09Z"/>
    <path class="cls-2" d="M21.33,297.07c1.94.01,2.86,1.05,2.77,2.94-.07,1.63-1.01,2.48-2.64,2.49-1.95.01-2.87-1.05-2.78-2.94.08-1.63,1-2.47,2.64-2.49Z"/>
    <path class="cls-2" d="M139.03,31.03c0,1.56-.88,2.61-2.82,2.59-1.63-.02-2.56-.89-2.63-2.51-.08-1.9.86-2.94,2.8-2.92,1.62.02,2.53.87,2.65,2.84Z"/>
    <path class="cls-2" d="M341.49,423.69c-.03,2.23-.91,3.08-2.58,3.12-1.65.04-2.63-.75-2.71-2.43-.1-1.96.9-2.96,2.86-2.85,1.66.09,2.48,1.03,2.42,2.16Z"/>
    <path class="cls-2" d="M120.32,45.11c-.18,1.81-1.16,2.94-2.98,2.94-1.82,0-2.94-1.12-2.94-2.94,0-1.82,1.13-2.94,2.94-2.94,1.81,0,2.8,1.13,2.98,2.94Z"/>
    <path class="cls-2" d="M457.39,238c1.64.04,2.45.88,2.48,2.51.02,1.61-.73,2.54-2.37,2.61-1.92.09-2.85-.9-2.75-2.79.09-1.63,1.04-2.37,2.64-2.33Z"/>
    <path class="cls-2" d="M459.43,221.48c1.72.02,2.69.82,2.7,2.48,0,1.66-.94,2.54-2.6,2.48-1.34-.05-2.21-.79-2.33-2.16-.15-1.64.66-2.58,2.23-2.8Z"/>
    <path class="cls-2" d="M119.61,26.05c1.57.03,2.54.82,2.54,2.47,0,1.64-.94,2.52-2.58,2.46-1.33-.05-2.2-.8-2.31-2.15-.14-1.61.64-2.58,2.35-2.78Z"/>
    <path class="cls-2" d="M2.57,209.67c1.69.23,2.47,1.23,2.29,2.8-.19,1.65-1.38,2.32-2.9,2.08-1.27-.2-2.02-1.12-1.96-2.46.07-1.64,1.02-2.4,2.57-2.42Z"/>
    <path class="cls-2" d="M100.76,39.08c1.65.14,2.55,1.01,2.45,2.65-.1,1.66-1.16,2.42-2.76,2.28-1.34-.12-2.09-.99-2.14-2.32-.06-1.65.85-2.49,2.45-2.6Z"/>
    <path class="cls-2" d="M6,198.04c-1.7-.14-2.58-1.04-2.46-2.69.12-1.68,1.2-2.42,2.8-2.27,1.35.13,2.09,1.01,2.13,2.36.04,1.67-.88,2.5-2.46,2.59Z"/>
    <path class="cls-2" d="M5.89,178.73c.24-1.66,1.3-2.4,2.86-2.19,1.65.22,2.3,1.42,2.03,2.97-.23,1.3-1.16,2-2.51,1.92-1.67-.09-2.39-1.09-2.37-2.69Z"/>
    <path class="cls-2" d="M317.35,437.16c.14-1.66.99-2.54,2.62-2.49,1.62.06,2.49.97,2.44,2.6-.06,1.62-.96,2.48-2.6,2.43-1.64-.05-2.42-.98-2.46-2.55Z"/>
    <path class="cls-2" d="M31.83,337.86c-1.64-.19-2.41-1.16-2.29-2.75.12-1.64,1.14-2.41,2.74-2.29,1.64.12,2.41,1.14,2.29,2.74-.12,1.65-1.14,2.35-2.74,2.31Z"/>
    <path class="cls-2" d="M151.8,441.96c-.17,1.71-1.1,2.55-2.72,2.41-1.67-.14-2.37-1.27-2.2-2.83.15-1.33,1.06-2.06,2.39-2.06,1.65,0,2.46.92,2.52,2.48Z"/>
    <path class="cls-2" d="M72.33,397.02c-1.66-.16-2.55-1.04-2.43-2.66.12-1.64,1.19-2.39,2.77-2.24,1.32.13,2.07,1.01,2.1,2.33.04,1.64-.88,2.45-2.44,2.57Z"/>
    <path class="cls-2" d="M296.31,8.3c-.03,1.57-.82,2.54-2.47,2.54-1.64,0-2.52-.94-2.46-2.58.05-1.33.8-2.2,2.15-2.31,1.61-.14,2.58.64,2.78,2.35Z"/>
    <path class="cls-2" d="M12.21,164.87c-1.79-.05-2.75-.86-2.74-2.51.02-1.64.98-2.51,2.61-2.43,1.33.06,2.17.84,2.28,2.18.14,1.65-.73,2.52-2.16,2.76Z"/>
    <path class="cls-2" d="M84.28,55.77c-.14,1.65-1.01,2.55-2.65,2.45-1.66-.1-2.42-1.16-2.28-2.76.12-1.34.99-2.09,2.32-2.14,1.65-.06,2.49.85,2.6,2.45Z"/>
    <path class="cls-2" d="M274.78,4.6c.24-1.66,1.3-2.4,2.86-2.19,1.65.22,2.3,1.42,2.03,2.97-.23,1.3-1.16,2-2.51,1.92-1.67-.09-2.39-1.09-2.37-2.69Z"/>
    <path class="cls-2" d="M260.68,4.98c-1.96-.3-2.67-1.39-2.44-2.93.24-1.63,1.45-2.27,2.99-1.98,1.31.24,1.97,1.2,1.89,2.54-.09,1.7-1.2,2.28-2.45,2.37Z"/>
    <path class="cls-2" d="M440.44,138.79c-1.67-.26-2.38-1.35-2.15-2.89.24-1.63,1.45-2.27,2.99-1.98,1.31.24,1.98,1.2,1.89,2.54-.11,1.66-1.12,2.37-2.73,2.33Z"/>
    <path class="cls-2" d="M430.22,116.41c-.19,1.64-1.16,2.41-2.75,2.29-1.64-.12-2.41-1.14-2.29-2.74.12-1.64,1.14-2.41,2.74-2.29,1.65.12,2.35,1.14,2.31,2.74Z"/>
    <path class="cls-2" d="M325.59,208.69c.99-.2,1.9-.15,2.51.82.04.47.09.95.13,1.42-1.09.11-1.97-.18-2.45-1.26.09-.36.03-.69-.2-.98Z"/>
  </g>
</svg>